# This file uses centimeters as units for non-parametric coordinates.

mtllib Stalagmites Trap type.mtl
g default
v -4.480600 -0.153718 2.832680
v 3.935401 -0.678977 2.759882
v -3.096780 0.678977 1.897567
v 3.096780 2.288537 1.897567
v -3.096780 0.678977 -4.295993
v 3.096780 0.678977 -4.295993
v -4.480600 -0.771338 -5.151996
v 3.677667 -0.678977 -5.398922
v -3.096780 0.678977 -1.199213
v 3.096780 2.288537 -1.199213
v 4.026825 -0.678977 -1.199213
v -5.428135 -0.678977 -1.199213
v 0.000000 -0.678977 3.762579
v 0.000000 -0.678977 -1.199213
v 0.000000 -0.678977 -5.351479
v 0.000000 0.678977 -4.295993
v 0.000000 2.288537 -1.199213
v 0.000000 2.288537 1.467895
v 0.861098 4.715723 -3.434896
v 0.861098 4.715723 -2.060312
v 2.235683 4.715723 -2.060312
v 2.235683 4.715723 -3.434896
v 1.151480 8.689208 -3.144514
v 1.151480 8.689208 -2.350693
v 1.945301 8.689208 -2.350693
v 1.945301 8.689208 -3.144514
v 1.263819 11.244729 -3.032174
v 1.263819 11.244729 -2.463032
v 1.832961 11.244729 -2.463032
v 1.832961 11.244729 -3.032174
v -1.982382 7.004309 0.783169
v -1.114398 7.004309 0.783169
v -1.114398 7.004309 -0.084815
v -1.982382 7.004309 -0.084815
v -1.782464 9.800397 0.583251
v -1.314316 9.800397 0.583251
v -1.314316 9.800397 0.115103
v -1.782464 9.800397 0.115103
v 1.059399 3.417767 -0.139814
v 1.059399 3.417767 0.838168
v 2.037381 3.417767 0.838168
v 2.037381 3.417767 -0.139814
v 1.309542 4.955396 0.110329
v 1.309542 4.955396 0.588025
v 1.787238 4.955396 0.588025
v 1.787238 4.955396 0.110329
v -2.675872 2.554316 -2.812988
v -1.669624 3.572051 -2.497104
v -1.333511 2.246767 -3.771085
v -2.675872 2.246767 -3.771085
v -2.173633 5.146472 -3.351517
v -1.891484 5.300814 -3.351517
v -1.876678 5.146472 -3.648471
v -2.173633 5.271138 -3.648471
v -4.480600 -0.678977 -3.439513
v 0.000000 -0.678977 -2.747603
v 4.480600 -0.678977 -3.439513
v 4.102898 1.483757 -2.747603
v 2.407182 5.708930 -2.747604
v 2.099454 8.334216 -2.747603
v 1.910261 11.244729 -2.747603
v 1.186520 11.244729 -2.747603
v 0.997327 9.019303 -2.747603
v 0.384463 5.223424 -2.747604
v 0.000000 2.124552 -2.747603
v -0.846552 2.746215 -3.636720
v -1.820694 5.223643 -3.499994
v -2.229617 5.117374 -3.499994
v -2.675872 2.400542 -3.292037
v -3.612816 0.678977 -2.747603
v 1.548390 -0.678977 -1.199213
v 2.240300 -0.678977 2.928947
v 1.548390 2.288537 2.126380
v 1.548390 3.163356 1.170801
v 1.548390 4.726208 0.653024
v 1.548390 4.847719 0.000535
v 1.548390 3.757478 -0.337365
v 1.548390 2.288537 -1.571715
v 1.548391 4.069983 -1.710333
v 1.548390 9.070497 -2.196540
v 1.548390 11.244729 -2.385733
v 1.548390 12.954419 -2.747603
v 1.548390 11.244729 -3.109474
v 1.548390 8.128720 -3.298667
v 1.860354 3.809142 -4.243511
v 1.548390 0.678977 -5.257255
v 2.240300 -0.678977 -5.679813
v 1.548390 -0.678977 -2.747603
v -3.780174 1.581357 0.349177
v -2.405337 6.072143 0.349177
v -1.846548 9.800397 0.349177
v -1.250232 9.800397 0.349177
v -0.795891 6.704449 0.349177
v 0.591870 3.283263 0.349177
v 0.953224 3.787320 0.349177
v 1.309542 5.006993 0.223609
v 1.548390 6.530630 0.349177
v 1.787238 5.080397 0.349177
v 2.395025 3.118931 0.349177
v 3.610493 2.288537 0.349177
v 4.480600 -0.678977 1.041087
v 1.548390 -0.678977 0.349177
v 0.000000 -0.678977 0.349177
v -4.677030 -0.814045 1.051565
v -2.240300 -0.678977 3.281387
v -1.548390 -0.678977 0.349177
v -1.548390 -0.678977 -1.199213
v -1.548390 -0.678977 -2.747603
v -2.240300 -0.678977 -5.679813
v -1.548390 0.678977 -5.172858
v -2.172748 2.125403 -4.263731
v -2.025155 5.117374 -3.704455
v -2.072338 5.883411 -3.561144
v -2.025155 5.223643 -3.295533
v -2.172748 2.803303 -2.496459
v -1.548390 1.938246 -1.749417
v -1.548390 7.004309 -0.254160
v -1.548390 9.800397 0.051019
v -1.548390 11.420131 0.349177
v -1.548390 9.800397 0.647335
v -1.548390 7.384041 0.952513
v -1.548390 1.483757 1.897567
v 1.729326 12.712726 -2.747603
v 1.548390 12.712726 -2.566668
v 1.436302 12.797615 -2.723896
v 1.548390 12.780298 -2.928539
v 1.667814 6.423393 0.349177
v 1.548390 6.423393 0.468601
v 1.428966 6.423393 0.349177
v 1.548390 6.423393 0.229753
v -1.399311 11.268393 0.349177
v -1.548390 11.373521 0.498256
v -1.697469 11.268393 0.349177
v -1.548390 11.268393 0.200098
v -1.970108 5.817003 -3.538712
v -2.072338 5.817003 -3.436481
v -2.174569 5.763868 -3.538712
v -2.072338 5.763868 -3.640942
vt 0.375000 0.000000
vt 0.625000 0.000000
vt 0.375000 0.250000
vt 0.625000 0.250000
vt 0.375000 0.500000
vt 0.625000 0.500000
vt 0.375000 0.750000
vt 0.625000 0.750000
vt 0.375000 1.000000
vt 0.625000 1.000000
vt 0.875000 0.000000
vt 0.875000 0.250000
vt 0.125000 0.000000
vt 0.125000 0.250000
vt 0.250000 0.250000
vt 0.375000 0.375000
vt 0.625000 0.375000
vt 0.750000 0.250000
vt 0.625000 0.875000
vt 0.750000 0.000000
vt 0.250000 0.000000
vt 0.375000 0.875000
vt 0.500000 0.000000
vt 0.500000 1.000000
vt 0.500000 0.875000
vt 0.500000 0.750000
vt 0.500000 0.500000
vt 0.500000 0.375000
vt 0.500000 0.250000
vt 0.500000 0.500000
vt 0.500000 0.375000
vt 0.625000 0.375000
vt 0.625000 0.500000
vt 0.500000 0.500000
vt 0.500000 0.375000
vt 0.625000 0.375000
vt 0.625000 0.500000
vt 0.500000 0.500000
vt 0.500000 0.375000
vt 0.625000 0.375000
vt 0.625000 0.500000
vt 0.375000 0.250000
vt 0.500000 0.250000
vt 0.500000 0.375000
vt 0.375000 0.375000
vt 0.375000 0.250000
vt 0.500000 0.250000
vt 0.500000 0.375000
vt 0.375000 0.375000
vt 0.500000 0.375000
vt 0.500000 0.250000
vt 0.625000 0.250000
vt 0.625000 0.375000
vt 0.500000 0.375000
vt 0.500000 0.250000
vt 0.625000 0.250000
vt 0.625000 0.375000
vt 0.375000 0.375000
vt 0.500000 0.375000
vt 0.500000 0.500000
vt 0.375000 0.500000
vt 0.375000 0.375000
vt 0.500000 0.375000
vt 0.500000 0.500000
vt 0.375000 0.500000
vt 0.187500 0.000000
vt 0.375000 0.812500
vt 0.500000 0.812500
vt 0.625000 0.812500
vt 0.812500 0.000000
vt 0.625000 0.437500
vt 0.812500 0.250000
vt 0.625000 0.437500
vt 0.625000 0.437500
vt 0.625000 0.437500
vt 0.500000 0.437500
vt 0.500000 0.437500
vt 0.500000 0.437500
vt 0.500000 0.437500
vt 0.500000 0.437500
vt 0.500000 0.437500
vt 0.375000 0.437500
vt 0.375000 0.437500
vt 0.187500 0.250000
vt 0.375000 0.437500
vt 0.562500 0.875000
vt 0.562500 0.000000
vt 0.562500 1.000000
vt 0.562500 0.250000
vt 0.562500 0.250000
vt 0.562500 0.250000
vt 0.562500 0.375000
vt 0.562500 0.375000
vt 0.562500 0.375000
vt 0.562500 0.375000
vt 0.562500 0.375000
vt 0.562500 0.375000
vt 0.562500 0.437500
vt 0.562500 0.500000
vt 0.562500 0.500000
vt 0.562500 0.500000
vt 0.562500 0.500000
vt 0.562500 0.750000
vt 0.562500 0.812500
vt 0.312500 0.250000
vt 0.375000 0.312500
vt 0.375000 0.312500
vt 0.375000 0.312500
vt 0.500000 0.312500
vt 0.500000 0.312500
vt 0.500000 0.312500
vt 0.500000 0.312500
vt 0.500000 0.312500
vt 0.562500 0.312500
vt 0.625000 0.312500
vt 0.625000 0.312500
vt 0.625000 0.312500
vt 0.687500 0.250000
vt 0.625000 0.937500
vt 0.687500 0.000000
vt 0.562500 0.937500
vt 0.500000 0.937500
vt 0.312500 0.000000
vt 0.375000 0.937500
vt 0.437500 0.000000
vt 0.437500 1.000000
vt 0.437500 0.937500
vt 0.437500 0.875000
vt 0.437500 0.812500
vt 0.437500 0.750000
vt 0.437500 0.500000
vt 0.437500 0.500000
vt 0.437500 0.500000
vt 0.437500 0.437500
vt 0.437500 0.375000
vt 0.437500 0.375000
vt 0.437500 0.375000
vt 0.437500 0.375000
vt 0.437500 0.375000
vt 0.437500 0.312500
vt 0.437500 0.250000
vt 0.437500 0.250000
vt 0.437500 0.250000
vt 0.593750 0.437500
vt 0.562500 0.406250
vt 0.531250 0.437500
vt 0.562500 0.468750
vt 0.593750 0.312500
vt 0.562500 0.281250
vt 0.531250 0.312500
vt 0.562500 0.343750
vt 0.468750 0.312500
vt 0.437500 0.281250
vt 0.406250 0.312500
vt 0.437500 0.343750
vt 0.468750 0.437500
vt 0.437500 0.406250
vt 0.406250 0.437500
vt 0.437500 0.468750
vn 0.139518 0.355289 0.924286
vn -0.050578 -0.329520 0.942793
vn 0.067775 -0.564012 0.822981
vn 0.043482 0.468573 0.882354
vn 0.004081 0.122495 0.992461
vn -0.222745 0.231805 0.946917
vn -0.919806 0.242149 -0.308739
vn -0.992465 0.122512 -0.002145
vn -0.713174 0.102534 0.693448
vn -0.005663 -0.861081 -0.508437
vn -0.164891 0.427503 -0.888849
vn -0.014257 0.393638 -0.919155
vn 0.010619 -0.829038 -0.559091
vn 0.000000 -1.000000 0.000000
vn 0.000000 -1.000000 0.000000
vn 0.000000 -1.000000 -0.000000
vn 0.000000 -1.000000 0.000000
vn 0.863542 0.457908 0.211224
vn 0.763155 -0.646088 0.012824
vn 0.780870 -0.623809 -0.033246
vn 0.938903 0.299419 -0.169730
vn -0.770371 0.633992 -0.067692
vn -0.508532 -0.858462 -0.066623
vn -0.821438 -0.552488 -0.141412
vn -0.774154 0.617212 -0.140479
vn -0.791417 0.200955 -0.577300
vn -0.977287 0.209962 -0.028733
vn -0.978151 0.205716 0.030030
vn 0.140367 0.220670 -0.965195
vn 0.014037 0.257235 -0.966247
vn 0.903847 0.427843 0.003199
vn 0.898018 -0.439536 0.019303
vn 0.000000 -1.000000 0.000000
vn 0.000000 -1.000000 0.000000
vn -0.411403 -0.910726 0.036402
vn -0.948034 0.318165 0.001516
vn -0.008357 -0.999867 0.014006
vn 0.005745 -0.999880 -0.014395
vn 0.003618 -0.999987 0.003618
vn -0.040094 -0.766894 -0.640521
vn 0.001075 0.537567 -0.843220
vn 0.877426 0.402248 0.261381
vn 0.255619 0.416041 0.872679
vn -0.442171 0.314090 0.840138
vn 0.684215 0.382198 0.621107
vn 0.916154 0.327910 0.230516
vn -0.000000 0.121541 -0.992586
vn -0.000000 0.198769 -0.980046
vn 0.952770 0.175433 0.247897
vn 0.990333 0.138679 0.002886
vn 0.678211 0.116422 -0.725586
vn -0.140221 0.395975 0.907492
vn -0.140683 -0.741410 0.656140
vn -0.987341 0.157578 -0.018075
vn -0.749487 0.522596 -0.406401
vn -0.107303 0.903562 -0.414804
vn -0.744364 0.196446 0.638225
vn 0.000000 0.817093 0.576506
vn -0.000000 0.208244 0.978077
vn 0.988930 0.146365 -0.024386
vn 0.682654 0.283682 0.673430
vn 0.009870 0.315457 -0.948889
vn -0.731515 0.187505 -0.655537
vn -0.996300 0.085948 0.000000
vn -0.626652 0.106604 0.771973
vn -0.000000 0.078408 0.996921
vn 0.994575 0.104020 -0.000000
vn 0.606357 0.090067 0.790075
vn -0.003331 0.166891 -0.985970
vn -0.686189 0.104375 -0.719896
vn 0.994307 0.106530 -0.002247
vn 0.736060 0.095872 0.670093
vn -0.009361 0.108589 -0.994043
vn -0.682894 0.100075 -0.723631
vn 0.009972 0.138901 0.990256
vn 0.401318 0.179988 0.898080
vn 0.937242 0.348679 -0.000000
vn 0.846398 0.532472 0.009174
vn 0.509688 0.245534 -0.824579
vn -0.519252 0.501066 -0.692322
vn -0.106720 0.252992 -0.961564
vn -0.961475 0.274893 0.000000
vn -0.593708 0.205228 -0.778070
vn 0.000000 0.129066 0.991636
vn 0.701357 0.117290 0.703094
vn -0.990012 0.140959 0.002616
vn -0.685965 0.117432 -0.718096
vn -0.944492 0.328528 0.001768
vn -0.403670 0.709087 -0.578140
vn -0.073407 0.695010 0.715243
vn -0.484602 0.553774 0.677123
vn 0.636097 0.771609 -0.000000
vn 0.512058 0.637298 -0.575889
vn 0.000000 0.450338 -0.892858
vn -0.006145 0.264551 0.964352
vn -0.867198 0.203021 0.454697
vn 0.976919 0.212860 0.017853
vn 0.825102 0.216281 -0.521948
vn -0.453511 0.372277 0.809776
vn 0.512245 0.486353 0.707860
vn 0.643956 0.530244 -0.551509
vn -0.019065 0.460280 -0.887569
vn 0.330875 0.342794 -0.879212
vn -0.932082 0.358068 0.054865
vn -0.673961 0.514152 0.530495
vn -0.062771 0.170254 -0.983399
vn 0.405453 0.141527 -0.903093
vn -0.985116 0.170617 -0.020898
vn -0.718205 0.264011 0.643801
vn 0.507381 -0.663730 -0.549570
vn 0.641090 0.404860 -0.651990
vn 0.706033 0.251901 -0.661864
vn 0.709686 0.075249 -0.700488
vn 0.697031 0.090799 -0.711269
vn -0.429210 0.247583 -0.868609
vn 0.233417 0.213371 -0.948678
vn -0.793973 0.309061 -0.523534
vn -0.798847 0.163895 -0.578777
vn -0.618143 0.574959 -0.536023
vn -0.501147 -0.729884 -0.464888
vn 0.609680 -0.349000 0.711680
vn 0.570002 0.486998 0.661763
vn 0.609334 0.479378 0.631593
vn 0.814588 0.215985 0.538328
vn 0.977080 0.211621 0.023032
vn 0.956643 0.217673 -0.193528
vn -0.484901 0.634666 0.601723
vn -0.362487 0.181959 0.914054
vn -0.707517 0.118218 0.696739
vn 0.000000 0.310417 0.950601
vn -0.161293 0.216460 0.962876
vn -0.631748 0.319128 0.706437
vn -0.949700 0.201366 0.239836
vn -0.952770 0.175433 0.247897
vn 0.280105 0.959341 0.034720
vn 0.000000 1.000000 0.000000
vn -0.000000 0.994042 -0.108995
vn -0.141666 0.980426 -0.136730
s 1
g pCube1
usemtl initialShadingGroup
f 18/29/1 13/23/2 72/87/3 73/89/4
f 81/97/5 124/145/6 125/146/7 62/76/8 28/39/9
f 15/26/10 16/27/11 86/102/12 87/103/13
f 14/25/14 56/68/15 88/104/16 71/86/17
f 10/18/18 11/20/19 57/70/20 58/72/21
f 70/84/22 55/66/23 12/21/24 9/15/25
f 43/54/26 96/113/27 129/150/28 130/151/29 76/92/30
f 100/118/31 101/120/32 11/20/19 10/18/18
f 102/121/33 103/122/34 14/25/14 71/86/17
f 9/15/25 12/21/24 104/123/35 89/105/36
f 106/127/37 107/128/38 14/25/14 103/122/34
f 107/128/38 108/129/39 56/68/15 14/25/14
f 109/130/40 110/131/41 16/27/11 15/26/10
f 135/156/42 136/157/43 114/135/44 52/63/45 67/81/46
f 118/139/47 134/155/48 131/152/49 92/109/50 37/48/51
f 122/143/52 105/125/53 13/23/2 18/29/1
f 64/78/54 65/79/55 17/28/56 20/31/57
f 17/28/56 78/94/58 79/95/59 20/31/57
f 10/17/18 58/71/21 59/73/60 21/32/61
f 85/101/62 86/102/12 16/27/11 19/30/63
f 63/77/64 64/78/54 20/31/57 24/35/65
f 20/31/57 79/95/59 80/96/66 24/35/65
f 21/32/61 59/73/60 60/74/67 25/36/68
f 84/100/69 85/101/62 19/30/63 23/34/70
f 62/76/8 63/77/64 24/35/65 28/39/9
f 24/35/65 80/96/66 81/97/5 28/39/9
f 25/36/68 60/74/67 61/75/71 29/40/72
f 83/99/73 84/100/69 23/34/70 27/38/74
f 121/142/75 122/143/52 18/29/1 32/43/76
f 93/110/77 94/111/78 17/28/56 33/44/79
f 17/28/56 116/137/80 117/138/81 33/44/79
f 9/16/25 89/106/36 90/107/82 34/45/83
f 120/141/84 121/142/75 32/43/76 36/47/85
f 92/109/50 93/110/77 33/44/79 37/48/51
f 33/44/79 117/138/81 118/139/47 37/48/51
f 34/45/83 90/107/82 91/108/86 38/49/87
f 17/28/56 94/111/78 95/112/88 39/50/89
f 18/29/1 73/89/4 74/90/90 40/51/91
f 99/116/92 100/117/31 10/17/18 42/53/93
f 77/93/94 78/94/58 17/28/56 39/50/89
f 39/50/89 95/112/88 96/113/27 43/54/26
f 40/51/91 74/90/90 75/91/95 44/55/96
f 98/115/97 99/116/92 42/53/93 46/57/98
f 76/92/30 77/93/94 39/50/89 43/54/26
f 115/136/99 116/137/80 17/28/56 48/59/100
f 48/59/100 65/79/55 66/80/101
f 16/27/11 110/131/41 111/132/102 49/60/103
f 69/83/104 70/85/22 9/16/25 47/58/105
f 114/135/44 115/136/99 48/59/100 52/63/45
f 48/59/100 66/80/101 67/81/46 52/63/45
f 49/60/103 111/132/102 112/133/106 53/64/107
f 68/82/108 69/83/104 47/58/105 51/62/109
f 108/129/39 109/130/40 15/26/10 56/68/15
f 87/103/13 88/104/16 56/68/15 15/26/10
f 58/72/21 57/70/20 8/11/110 6/12/111
f 59/73/60 58/71/21 6/6/111 22/33/112
f 60/74/67 59/73/60 22/33/112 26/37/113
f 61/75/71 60/74/67 26/37/113 30/41/114
f 27/38/74 62/76/8 125/146/7 126/147/115 83/99/73
f 23/34/70 63/77/64 62/76/8 27/38/74
f 19/30/63 64/78/54 63/77/64 23/34/70
f 16/27/11 65/79/55 64/78/54 19/30/63
f 66/80/101 16/27/11 49/60/103
f 67/81/46 66/80/101 49/60/103 53/64/107
f 112/133/106 138/159/116 135/156/42 67/81/46 53/64/107
f 50/61/117 69/83/104 68/82/108 54/65/118
f 5/5/119 70/85/22 69/83/104 50/61/117
f 7/13/120 55/66/23 70/84/22 5/14/119
f 101/119/32 102/121/33 71/86/17 11/19/19
f 73/89/4 72/87/3 2/2/121 4/4/122
f 74/90/90 73/89/4 4/4/122 41/52/123
f 75/91/95 74/90/90 41/52/123 45/56/124
f 76/92/30 130/151/29 127/148/125 98/115/97 46/57/98
f 42/53/93 77/93/94 76/92/30 46/57/98
f 10/17/18 78/94/58 77/93/94 42/53/93
f 79/95/59 78/94/58 10/17/18 21/32/61
f 80/96/66 79/95/59 21/32/61 25/36/68
f 81/97/5 80/96/66 25/36/68 29/40/72
f 61/75/71 123/144/126 124/145/6 81/97/5 29/40/72
f 83/99/73 126/147/115 123/144/126 61/75/71 30/41/114
f 26/37/113 84/100/69 83/99/73 30/41/114
f 22/33/112 85/101/62 84/100/69 26/37/113
f 6/6/111 86/102/12 85/101/62 22/33/112
f 87/103/13 86/102/12 6/6/111 8/8/110
f 57/69/20 88/104/16 87/103/13 8/8/110
f 71/86/17 88/104/16 57/69/20 11/19/19
f 90/107/82 89/106/36 3/3/127 31/42/128
f 91/108/86 90/107/82 31/42/128 35/46/129
f 131/152/49 132/153/130 120/141/84 36/47/85 92/109/50
f 32/43/76 93/110/77 92/109/50 36/47/85
f 18/29/1 94/111/78 93/110/77 32/43/76
f 95/112/88 94/111/78 18/29/1 40/51/91
f 96/113/27 95/112/88 40/51/91 44/55/96
f 128/149/131 129/150/28 96/113/27 44/55/96 75/91/95
f 98/115/97 127/148/125 128/149/131 75/91/95 45/56/124
f 41/52/123 99/116/92 98/115/97 45/56/124
f 4/4/122 100/117/31 99/116/92 41/52/123
f 2/2/121 101/120/32 100/118/31 4/4/122
f 72/88/3 102/121/33 101/119/32 2/10/121
f 13/24/2 103/122/34 102/121/33 72/88/3
f 105/126/53 106/127/37 103/122/34 13/24/2
f 89/105/36 104/123/35 1/1/132 3/3/127
f 104/124/35 106/127/37 105/126/53 1/9/132
f 12/22/24 107/128/38 106/127/37 104/124/35
f 55/67/23 108/129/39 107/128/38 12/22/24
f 7/7/120 109/130/40 108/129/39 55/67/23
f 5/5/119 110/131/41 109/130/40 7/7/120
f 111/132/102 110/131/41 5/5/119 50/61/117
f 112/133/106 111/132/102 50/61/117 54/65/118
f 68/82/108 137/158/133 138/159/116 112/133/106 54/65/118
f 51/62/109 114/135/44 136/157/43 137/158/133 68/82/108
f 47/58/105 115/136/99 114/135/44 51/62/109
f 9/16/25 116/137/80 115/136/99 47/58/105
f 117/138/81 116/137/80 9/16/25 34/45/83
f 118/139/47 117/138/81 34/45/83 38/49/87
f 91/108/86 133/154/134 134/155/48 118/139/47 38/49/87
f 35/46/129 120/141/84 132/153/130 133/154/134 91/108/86
f 31/42/128 121/142/75 120/141/84 35/46/129
f 3/3/127 122/143/52 121/142/75 31/42/128
f 1/1/132 105/125/53 122/143/52 3/3/127
f 124/145/6 123/144/126 82/98/135
f 125/146/7 124/145/6 82/98/135
f 126/147/115 125/146/7 82/98/135
f 123/144/126 126/147/115 82/98/135
f 128/149/131 127/148/125 97/114/136
f 97/114/136 129/150/28 128/149/131
f 130/151/29 129/150/28 97/114/136
f 127/148/125 130/151/29 97/114/136
f 119/140/137 132/153/130 131/152/49
f 133/154/134 132/153/130 119/140/137
f 134/155/48 133/154/134 119/140/137
f 131/152/49 134/155/48 119/140/137
f 113/134/138 136/157/43 135/156/42
f 137/158/133 136/157/43 113/134/138
f 138/159/116 137/158/133 113/134/138
f 135/156/42 138/159/116 113/134/138
f 66/80/101 65/79/55 16/27/11
f 17/28/56 65/79/55 48/59/100
