# This file uses centimeters as units for non-parametric coordinates.

mtllib Stalagmites Scene Type 2.mtl
g default
v -3.096781 -0.678977 10.796228
v 3.096781 -0.678977 10.796228
v -2.816515 0.678977 10.515962
v 2.509140 -0.029780 10.168112
v -2.622879 -0.219743 5.058837
v 2.773842 0.678977 4.925605
v -3.096781 -0.678977 4.602666
v 3.096781 -0.678977 4.602666
v -2.816515 0.678977 7.979713
v 2.773842 0.678977 7.376508
v 4.187225 -0.678977 7.699447
v -4.253459 -0.678977 7.699447
v 0.000000 -0.678977 11.547895
v 0.000000 -0.678977 7.699447
v 0.000000 -0.678977 3.857899
v 0.322939 0.678977 4.925605
v 0.322939 0.678977 7.376508
v -0.280266 0.678977 10.515962
v 0.852710 2.912722 5.455376
v 0.852710 2.912722 6.846737
v 2.244071 2.912722 6.846737
v 2.244071 2.912722 5.455376
v -2.187362 2.463876 9.886809
v -0.909419 2.463876 9.886809
v -0.909419 2.463876 8.608866
v -2.187362 2.463876 8.608866
v -3.096781 0.678977 9.247838
v -2.482151 2.463876 9.247838
v -0.614630 2.463876 9.247838
v 0.584752 0.678977 9.247838
v 2.509140 -0.029780 8.619721
v 4.187225 -0.678977 9.247838
v 0.000000 -0.678977 9.247838
v -4.253459 -0.678977 9.247838
v -1.548391 -0.678977 11.305509
v -1.548391 -0.678977 9.247838
v -1.548391 -0.678977 7.699447
v -1.548391 -0.678977 3.857899
v -1.074489 0.192216 5.058837
v -1.548391 0.678977 7.400026
v -1.548391 2.463876 8.314077
v -1.548391 2.463876 9.247838
v -1.548391 2.463876 10.181599
v -1.548391 0.678977 10.796228
v -3.837431 -0.678977 6.151056
v -1.548391 -0.678977 6.151056
v 0.000000 -0.678977 6.151056
v 3.728406 -0.678977 6.151056
v 3.096781 0.678977 6.151056
v 2.497585 2.912722 6.151056
v 0.599196 2.912722 6.151056
v -0.685611 0.678977 6.151056
v -1.548391 0.331555 6.151056
v -2.622879 -0.059161 6.607228
v 1.548391 -0.678977 7.699447
v 1.548391 -0.678977 9.247838
v 1.548391 -0.678977 11.547895
v 0.960750 -0.029780 10.168112
v 1.376523 0.441084 8.619721
v 1.548391 0.678977 7.699447
v 1.548391 2.912722 7.100251
v 1.548391 2.912722 6.151056
v 1.548391 2.912722 5.201862
v 1.548391 0.678977 4.602666
v 1.548391 -0.678977 4.008772
v 1.548391 -0.678977 6.151056
vt 0.375000 0.000000
vt 0.625000 0.000000
vt 0.375000 0.250000
vt 0.625000 0.250000
vt 0.375000 0.500000
vt 0.625000 0.500000
vt 0.375000 0.750000
vt 0.625000 0.750000
vt 0.375000 1.000000
vt 0.625000 1.000000
vt 0.875000 0.000000
vt 0.875000 0.250000
vt 0.125000 0.000000
vt 0.125000 0.250000
vt 0.250000 0.250000
vt 0.375000 0.375000
vt 0.625000 0.375000
vt 0.750000 0.250000
vt 0.625000 0.875000
vt 0.750000 0.000000
vt 0.250000 0.000000
vt 0.375000 0.875000
vt 0.500000 0.000000
vt 0.500000 1.000000
vt 0.500000 0.875000
vt 0.500000 0.750000
vt 0.500000 0.500000
vt 0.500000 0.375000
vt 0.500000 0.250000
vt 0.500000 0.500000
vt 0.500000 0.375000
vt 0.625000 0.375000
vt 0.625000 0.500000
vt 0.375000 0.250000
vt 0.500000 0.250000
vt 0.500000 0.375000
vt 0.375000 0.375000
vt 0.312500 0.250000
vt 0.375000 0.312500
vt 0.375000 0.312500
vt 0.500000 0.312500
vt 0.500000 0.312500
vt 0.625000 0.312500
vt 0.687500 0.250000
vt 0.625000 0.937500
vt 0.687500 0.000000
vt 0.500000 0.937500
vt 0.312500 0.000000
vt 0.375000 0.937500
vt 0.437500 0.000000
vt 0.437500 1.000000
vt 0.437500 0.937500
vt 0.437500 0.875000
vt 0.437500 0.750000
vt 0.437500 0.500000
vt 0.437500 0.375000
vt 0.437500 0.375000
vt 0.437500 0.312500
vt 0.437500 0.250000
vt 0.437500 0.250000
vt 0.187500 0.000000
vt 0.375000 0.812500
vt 0.437500 0.812500
vt 0.500000 0.812500
vt 0.625000 0.812500
vt 0.812500 0.000000
vt 0.625000 0.437500
vt 0.812500 0.250000
vt 0.625000 0.437500
vt 0.500000 0.437500
vt 0.500000 0.437500
vt 0.437500 0.437500
vt 0.187500 0.250000
vt 0.375000 0.437500
vt 0.562500 0.875000
vt 0.562500 0.937500
vt 0.562500 0.000000
vt 0.562500 1.000000
vt 0.562500 0.250000
vt 0.562500 0.312500
vt 0.562500 0.375000
vt 0.562500 0.375000
vt 0.562500 0.437500
vt 0.562500 0.500000
vt 0.562500 0.500000
vt 0.562500 0.750000
vt 0.562500 0.812500
vn 0.403975 0.562112 0.721689
vn 0.130880 -0.763599 0.632287
vn 0.208024 -0.799782 0.563094
vn 0.244724 0.862578 0.442798
vn 0.000000 1.000000 0.000000
vn 0.000000 1.000000 0.000000
vn 0.000000 1.000000 0.000000
vn 0.000000 1.000000 0.000000
vn -0.091131 -0.751164 -0.653795
vn -0.405707 0.524041 -0.748854
vn 0.059186 0.360798 -0.930764
vn 0.085440 -0.755395 -0.649676
vn 0.000000 -1.000000 0.000000
vn 0.000000 -1.000000 0.000000
vn 0.000000 -1.000000 0.000000
vn 0.000000 -1.000000 0.000000
vn 0.690426 0.571236 0.443849
vn 0.644216 -0.753446 0.131550
vn 0.613255 -0.780931 -0.118600
vn 0.918052 0.387128 -0.085516
vn -0.441250 0.857501 -0.264558
vn -0.479715 -0.843717 -0.240864
vn -0.647115 -0.736085 -0.198549
vn -0.645309 0.654686 -0.393653
vn -0.071331 0.985543 0.153681
vn 0.675675 0.714634 0.181002
vn 0.290935 0.908361 0.300396
vn 0.088111 0.629322 0.772134
vn 0.377798 0.897593 0.227147
vn 0.597778 -0.752901 0.275320
vn 0.000000 -1.000000 0.000000
vn 0.000000 -1.000000 0.000000
vn -0.719516 -0.680264 0.139779
vn -0.853069 0.513221 0.094221
vn -0.000000 -1.000000 -0.000000
vn -0.000000 -1.000000 0.000000
vn -0.000000 -1.000000 0.000000
vn -0.187195 -0.780026 -0.597091
vn -0.239491 0.845066 -0.478025
vn -0.663273 0.743327 -0.086794
vn -0.299861 0.917742 -0.260447
vn -0.179089 0.752104 -0.634244
vn 0.000000 1.000000 0.000000
vn 0.000000 1.000000 0.000000
vn 0.000000 1.000000 0.000000
vn 0.000000 1.000000 0.000000
vn -0.065512 0.389817 0.918559
vn -0.080016 -0.790025 0.607830
vn -0.900087 0.435710 0.000000
vn -0.579544 0.344307 0.738634
vn 0.000000 0.277008 0.960868
vn 0.960868 0.277008 0.000000
vn 0.674707 0.299234 0.674707
vn 0.000000 0.277008 -0.960868
vn -0.579544 0.344307 -0.738634
vn 0.000000 0.372640 0.927976
vn 0.564153 0.442541 0.697058
vn 0.814902 0.568817 0.111277
vn 0.512744 0.646130 -0.565341
vn -0.117085 0.501092 -0.857437
vn -0.927976 0.372640 0.000000
vn -0.675804 0.423806 -0.603057
vn -0.614977 0.408346 0.674579
vn -0.648100 0.399916 0.648100
vn 0.000000 1.000000 0.000000
vn 0.000000 1.000000 0.000000
vn 0.370638 -0.838457 0.399522
vn 0.255689 0.927511 0.272666
vn -0.429658 -0.749277 0.503962
vn -0.342067 0.880913 -0.327081
vn -0.352155 -0.869581 -0.346144
vn 0.000000 1.000000 0.000000
vn 0.000000 1.000000 0.000000
vn 0.000000 1.000000 0.000000
vn 0.495151 -0.710521 -0.499985
vn 0.663894 0.337798 -0.667186
vn 0.674707 0.299234 -0.674707
vn 0.000000 1.000000 0.000000
vn 0.000000 1.000000 0.000000
vn 0.000000 1.000000 0.000000
vn 0.000000 1.000000 0.000000
vn 0.000000 1.000000 0.000000
s 1
g pasted__pCube1 group2
usemtl initialShadingGroup
f 18/29/1 13/23/2 57/77/3 58/79/4
s 2
f 61/82/5 62/83/6 51/70/7 20/31/8
s 1
f 15/26/9 16/27/10 64/85/11 65/86/12
f 14/25/13 47/64/14 66/87/15 55/75/16
f 10/18/17 11/20/18 48/66/19 49/68/20
f 54/73/21 45/61/22 12/21/23 9/15/24
f 17/28/25 30/42/26 59/80/27 60/81/28
f 31/44/29 32/46/30 11/20/18 10/18/17
f 55/75/16 56/76/31 33/47/32 14/25/13
f 9/15/24 12/21/23 34/48/33 27/38/34
f 36/52/35 37/53/36 14/25/13 33/47/32
f 37/53/36 46/63/37 47/64/14 14/25/13
f 38/54/38 39/55/39 16/27/10 15/26/9
f 52/71/40 53/72/41 40/56/42 17/28/25
s 8
f 41/57/43 42/58/44 29/41/45 25/36/46
s 1
f 44/60/47 35/50/48 13/23/2 18/29/1
f 51/70/49 52/71/40 17/28/25 20/31/50
f 17/28/25 60/81/28 61/82/51 20/31/50
f 10/17/17 49/67/20 50/69/52 21/32/53
f 63/84/54 64/85/11 16/27/10 19/30/55
f 43/59/56 44/60/47 18/29/1 24/35/57
f 29/41/58 30/42/26 17/28/25 25/36/59
f 17/28/25 40/56/42 41/57/60 25/36/59
f 9/16/24 27/39/34 28/40/61 26/37/62
f 28/40/61 27/39/34 3/3/63 23/34/64
s 8
f 42/58/44 43/59/65 24/35/66 29/41/45
s 1
f 18/29/1 30/42/26 29/41/58 24/35/57
f 58/79/4 59/80/27 30/42/26 18/29/1
f 2/2/67 32/46/30 31/44/29 4/4/68
f 13/24/2 33/47/32 56/76/31 57/78/3
f 35/51/48 36/52/35 33/47/32 13/24/2
f 27/38/34 34/48/33 1/1/69 3/3/63
f 34/49/33 36/52/35 35/51/48 1/9/69
f 12/22/23 37/53/36 36/52/35 34/49/33
f 45/62/22 46/63/37 37/53/36 12/22/23
f 5/5/70 39/55/39 38/54/38 7/7/71
f 9/16/24 40/56/42 53/72/41 54/74/21
f 41/57/60 40/56/42 9/16/24 26/37/62
s 8
f 28/40/72 42/58/44 41/57/43 26/37/73
f 23/34/74 43/59/65 42/58/44 28/40/72
s 1
f 3/3/63 44/60/47 43/59/56 23/34/64
f 1/1/69 35/50/48 44/60/47 3/3/63
f 7/7/71 38/54/38 46/63/37 45/62/22
f 47/64/14 46/63/37 38/54/38 15/26/9
f 65/86/12 66/87/15 47/64/14 15/26/9
f 49/68/20 48/66/19 8/11/75 6/12/76
f 50/69/52 49/67/20 6/6/76 22/33/77
s 2
f 19/30/78 51/70/7 62/83/6 63/84/79
s 1
f 16/27/10 52/71/40 51/70/49 19/30/55
f 39/55/39 53/72/41 52/71/40 16/27/10
f 54/74/21 53/72/41 39/55/39 5/5/70
f 7/13/71 45/61/22 54/73/21 5/14/70
f 32/45/30 56/76/31 55/75/16 11/19/18
f 57/78/3 56/76/31 32/45/30 2/10/67
f 58/79/4 57/77/3 2/2/67 4/4/68
f 31/43/29 59/80/27 58/79/4 4/4/68
f 60/81/28 59/80/27 31/43/29 10/17/17
f 61/82/51 60/81/28 10/17/17 21/32/53
s 2
f 50/69/80 62/83/6 61/82/5 21/32/81
f 63/84/79 62/83/6 50/69/80 22/33/82
s 1
f 6/6/76 64/85/11 63/84/54 22/33/77
f 65/86/12 64/85/11 6/6/76 8/8/75
f 48/65/19 66/87/15 65/86/12 8/8/75
f 55/75/16 66/87/15 48/65/19 11/19/18
