# This file uses centimeters as units for non-parametric coordinates.

mtllib Candle 2.mtl
g default
v 0.691514 -0.084268 4.114975
v 0.775956 -0.084268 4.017558
v 0.766780 -0.084268 3.888965
v 0.669363 -0.084268 3.804523
v 0.540770 -0.084268 3.813699
v 0.456328 -0.084268 3.911116
v 0.465503 -0.084268 4.039709
v 0.562921 -0.084268 4.124150
v 0.691514 0.983701 4.114975
v 0.775956 0.983701 4.017558
v 0.766780 0.983701 3.888965
v 0.669363 0.983701 3.804523
v 0.540770 1.038955 3.813699
v 0.456328 1.038955 3.911116
v 0.465503 0.983701 4.039709
v 0.562921 0.983701 4.124150
v 0.616142 -0.084268 3.964337
v 0.619033 0.983701 3.955656
v 0.624325 0.983701 3.960243
v 0.624823 0.983701 3.967228
v 0.620236 0.983701 3.972519
v 0.613251 0.983701 3.973018
v 0.607959 0.983701 3.968431
v 0.607461 0.983701 3.961446
v 0.612048 0.983701 3.956154
v 0.619033 1.052793 3.955656
v 0.624325 1.052793 3.960243
v 0.624823 1.052793 3.967228
v 0.620236 1.052793 3.972519
v 0.613251 1.052793 3.973018
v 0.607959 1.052793 3.968431
v 0.607461 1.052793 3.961446
v 0.612048 1.052793 3.956154
v 0.635361 1.109130 3.961093
v 0.640653 1.109129 3.965680
v 0.641151 1.109129 3.972666
v 0.636564 1.109129 3.977957
v 0.629579 1.109129 3.978456
v 0.624288 1.109129 3.973869
v 0.623789 1.109129 3.966884
v 0.628376 1.109130 3.961592
v 0.624616 1.177957 3.939011
v 0.629908 1.177956 3.943596
v 0.621724 1.177956 3.947690
v 0.630404 1.177955 3.950579
v 0.625818 1.177955 3.955871
v 0.618832 1.177955 3.956369
v 0.613541 1.177955 3.951783
v 0.613042 1.177956 3.944799
v 0.617629 1.177957 3.939509
v -0.724138 -0.099396 4.971216
v 1.108795 -0.099396 4.822145
v -0.572721 0.071937 4.971216
v 1.002482 -0.024727 4.822145
v -0.183894 0.072973 3.632279
v 0.966285 0.117550 3.762175
v -0.381974 -0.099396 3.397762
v 1.177296 -0.099396 3.446359
v 0.302287 -0.099396 5.136117
v 0.302287 -0.099396 3.214963
v 0.302287 0.089498 3.533636
v 0.302287 0.012624 4.952529
v -0.691217 0.263020 4.096207
v 0.302287 0.571068 4.096207
v 1.034690 0.167075 4.096207
v 1.177296 -0.099396 4.096207
v 0.302287 -0.099396 4.096207
v -0.901428 -0.099396 4.096207
v 0.739792 -0.099396 5.320412
v 0.739792 -0.099396 4.096207
v 0.739792 -0.099396 3.446359
v 0.739792 0.063575 3.647889
v 0.885093 0.580012 4.166729
v 0.739792 0.101962 5.092862
v -0.135217 -0.099396 4.966714
v -0.135217 -0.099396 4.096207
v 0.055530 -0.099396 3.339123
v 0.055530 0.072973 3.531399
v -0.135217 0.301425 4.096207
v -0.135217 0.081276 4.828908
v -0.550604 -0.099396 3.835266
v 0.055530 -0.099396 3.835266
v 0.302287 -0.099396 3.658703
v 0.739792 -0.099396 3.883863
v 1.177296 -0.099396 3.883863
v 1.025471 0.263020 3.907830
v 0.739792 0.263020 3.883863
v 0.432955 0.399564 3.756884
v 0.055530 0.263020 3.835266
v -0.229843 0.263020 3.835266
v -0.572721 0.263020 4.533711
v -0.135217 0.439124 4.533711
v 0.302287 0.540537 4.533711
v 0.739792 0.263020 4.533711
v 1.013983 0.035490 4.533711
v 1.196058 -0.099396 4.384640
v 0.739792 -0.099396 4.533711
v 0.302287 -0.099396 4.533711
v -0.135217 -0.099396 4.533711
v -0.879318 -0.099396 4.533711
v -0.035683 -0.037770 4.117563
v -0.152295 -0.037770 4.468520
v 0.013411 -0.037770 4.799141
v 0.364368 -0.037770 4.915754
v 0.694989 -0.037770 4.750048
v 0.811601 -0.037770 4.399091
v 0.645895 -0.037770 4.068470
v 0.294939 -0.037770 3.951857
v -0.035683 1.455297 4.117563
v -0.152295 1.455297 4.468520
v 0.013411 1.395512 4.799141
v 0.364368 1.375971 4.915754
v 0.694989 1.233322 4.750048
v 0.811601 1.233322 4.399091
v 0.645895 1.375971 4.068470
v 0.294939 1.375971 3.951857
v 0.329653 -0.037770 4.433805
v 0.331028 1.375971 4.452886
v 0.317133 1.375971 4.448269
v 0.310573 1.375971 4.435180
v 0.315189 1.375971 4.421286
v 0.328279 1.375971 4.414725
v 0.342173 1.375971 4.419342
v 0.348733 1.375971 4.432431
v 0.344117 1.375971 4.446325
v 0.416919 1.837444 4.446571
v 0.407748 1.848180 4.442696
v 0.413361 1.837604 4.427776
v 0.401867 1.852720 4.430080
v 0.402718 1.848407 4.416115
v 0.409804 1.837765 4.408981
v 0.418974 1.827029 4.412856
v 0.424856 1.822488 4.425472
v 0.424005 1.826802 4.439437
v 0.298002 1.530162 4.493630
v 0.311091 1.530162 4.487070
v 0.315708 1.530162 4.473176
v 0.309148 1.530162 4.460086
v 0.295253 1.530162 4.455470
v 0.282164 1.530162 4.462030
v 0.277548 1.530162 4.475924
v 0.284107 1.530162 4.489013
v 0.329721 1.689686 4.434742
v 0.315826 1.689686 4.430126
v 0.309266 1.689686 4.417037
v 0.313882 1.689686 4.403142
v 0.326972 1.689686 4.396582
v 0.340866 1.689686 4.401198
v 0.347426 1.689686 4.414288
v 0.342810 1.689686 4.428182
vt 0.610485 0.045765
vt 0.500000 0.000000
vt 0.389515 0.045765
vt 0.343750 0.156250
vt 0.389515 0.266735
vt 0.500000 0.312500
vt 0.610485 0.266735
vt 0.656250 0.156250
vt 0.375000 0.312500
vt 0.406250 0.312500
vt 0.437500 0.312500
vt 0.468750 0.312500
vt 0.500000 0.312500
vt 0.531250 0.312500
vt 0.562500 0.312500
vt 0.593750 0.312500
vt 0.625000 0.312500
vt 0.375000 0.688440
vt 0.406250 0.688440
vt 0.437500 0.688440
vt 0.468750 0.688440
vt 0.500000 0.688440
vt 0.531250 0.688440
vt 0.562500 0.688440
vt 0.593750 0.688440
vt 0.625000 0.688440
vt 0.610485 0.733265
vt 0.500000 0.687500
vt 0.389515 0.733265
vt 0.343750 0.843750
vt 0.389515 0.954235
vt 0.500000 1.000000
vt 0.610485 0.954235
vt 0.656250 0.843750
vt 0.500000 0.150000
vt 0.500000 0.837500
vt 0.421875 0.840625
vt 0.444757 0.895868
vt 0.500000 0.918750
vt 0.555243 0.895868
vt 0.578125 0.840625
vt 0.555243 0.785382
vt 0.500000 0.762500
vt 0.444757 0.785382
vt 0.444757 0.895868
vt 0.421875 0.840625
vt 0.500000 0.918750
vt 0.555243 0.895868
vt 0.578125 0.840625
vt 0.555243 0.785382
vt 0.500000 0.762500
vt 0.444757 0.785382
vt 0.444757 0.895868
vt 0.421875 0.840625
vt 0.500000 0.918750
vt 0.555243 0.895868
vt 0.578125 0.840625
vt 0.555243 0.785382
vt 0.500000 0.762500
vt 0.444757 0.785382
vt 0.444757 0.895868
vt 0.421875 0.840625
vt 0.500000 0.918750
vt 0.555243 0.895868
vt 0.578125 0.840625
vt 0.555243 0.785382
vt 0.500000 0.762500
vt 0.444757 0.785382
vt 0.562500 0.250000
vt 0.562500 0.000000
vt 0.625000 0.000000
vt 0.625000 0.250000
vt 0.625000 0.437500
vt 0.562500 0.437500
vt 0.562500 0.375000
vt 0.625000 0.375000
vt 0.562500 0.750000
vt 0.562500 0.500000
vt 0.625000 0.500000
vt 0.625000 0.750000
vt 0.625000 0.875000
vt 0.562500 0.875000
vt 0.562500 0.812500
vt 0.625000 0.812500
vt 0.750000 0.250000
vt 0.750000 0.000000
vt 0.812500 0.000000
vt 0.812500 0.250000
vt 0.187500 0.250000
vt 0.187500 0.000000
vt 0.250000 0.000000
vt 0.250000 0.250000
vt 0.437500 0.875000
vt 0.437500 0.812500
vt 0.500000 0.812500
vt 0.500000 0.875000
vt 0.437500 0.750000
vt 0.437500 0.500000
vt 0.500000 0.500000
vt 0.500000 0.750000
vt 0.500000 0.437500
vt 0.437500 0.437500
vt 0.437500 0.375000
vt 0.500000 0.375000
vt 0.437500 0.250000
vt 0.437500 0.000000
vt 0.500000 0.000000
vt 0.500000 0.250000
vt 0.437500 0.312500
vt 0.500000 0.312500
vt 0.562500 0.312500
vt 0.625000 0.312500
vt 0.687500 0.250000
vt 0.687500 0.000000
vt 0.625000 0.937500
vt 0.562500 0.937500
vt 0.500000 0.937500
vt 0.437500 0.937500
vt 0.312500 0.000000
vt 0.312500 0.250000
vt 0.375000 0.875000
vt 0.375000 0.937500
vt 0.375000 0.812500
vt 0.375000 0.500000
vt 0.375000 0.750000
vt 0.375000 0.375000
vt 0.375000 0.437500
vt 0.375000 0.312500
vt 0.375000 0.000000
vt 0.375000 0.250000
vt 0.875000 0.000000
vt 0.875000 0.250000
vt 0.125000 0.000000
vt 0.125000 0.250000
vt 0.562500 1.000000
vt 0.625000 1.000000
vt 0.500000 1.000000
vt 0.437500 1.000000
vt 0.375000 1.000000
vt 0.375000 0.312500
vt 0.406250 0.312500
vt 0.406250 0.688440
vt 0.375000 0.688440
vt 0.437500 0.312500
vt 0.437500 0.688440
vt 0.468750 0.312500
vt 0.468750 0.688440
vt 0.500000 0.312500
vt 0.500000 0.688440
vt 0.531250 0.312500
vt 0.531250 0.688440
vt 0.562500 0.312500
vt 0.562500 0.688440
vt 0.593750 0.312500
vt 0.593750 0.688440
vt 0.625000 0.312500
vt 0.625000 0.688440
vt 0.500000 0.000000
vt 0.610485 0.045765
vt 0.500000 0.150000
vt 0.389515 0.045765
vt 0.343750 0.156250
vt 0.389515 0.266735
vt 0.500000 0.312500
vt 0.610485 0.266735
vt 0.656250 0.156250
vt 0.610485 0.954235
vt 0.500000 1.000000
vt 0.500000 0.918750
vt 0.555243 0.895868
vt 0.389515 0.954235
vt 0.444757 0.895868
vt 0.343750 0.843750
vt 0.421875 0.840625
vt 0.389515 0.733265
vt 0.444757 0.785382
vt 0.500000 0.687500
vt 0.500000 0.762500
vt 0.610485 0.733265
vt 0.555243 0.785382
vt 0.656250 0.843750
vt 0.578125 0.840625
vt 0.444757 0.895868
vt 0.421875 0.840625
vt 0.500000 0.837500
vt 0.500000 0.918750
vt 0.555243 0.895868
vt 0.578125 0.840625
vt 0.555243 0.785382
vt 0.500000 0.762500
vt 0.444757 0.785382
vt 0.444757 0.895868
vt 0.421875 0.840625
vt 0.421875 0.840625
vt 0.444757 0.895868
vt 0.500000 0.918750
vt 0.500000 0.918750
vt 0.555243 0.895868
vt 0.555243 0.895868
vt 0.578125 0.840625
vt 0.578125 0.840625
vt 0.555243 0.785382
vt 0.555243 0.785382
vt 0.500000 0.762500
vt 0.500000 0.762500
vt 0.444757 0.785382
vt 0.444757 0.785382
vn 0.446683 -0.059043 0.892742
vn 0.947117 -0.059043 0.315410
vn 0.947127 0.058869 0.315413
vn 0.446688 0.058869 0.892751
vn 0.892742 -0.059043 -0.446684
vn 0.892751 0.058869 -0.446688
vn 0.310412 -0.058290 -0.948813
vn 0.276763 0.052134 -0.959523
vn -0.451341 -0.056844 -0.890540
vn -0.493622 0.064436 -0.867286
vn -0.945599 -0.056844 -0.320331
vn -0.928584 0.064436 -0.365486
vn -0.895131 -0.058291 0.441977
vn -0.910509 0.052134 0.410189
vn -0.315411 -0.059043 0.947117
vn -0.315414 0.058869 0.947126
vn 0.000000 -1.000000 0.000000
vn 0.033903 0.999361 0.011290
vn 0.015988 0.999361 0.031954
vn 0.031955 0.999361 -0.015988
vn 0.215319 0.975546 0.044130
vn 0.313682 0.936134 0.158925
vn 0.201850 0.936134 0.287942
vn 0.074256 0.975546 0.206875
vn -0.011291 0.999361 0.033902
vn 0.853919 0.016132 -0.520155
vn 0.251065 -0.212102 -0.944446
vn -0.000010 1.000000 0.000098
vn 0.928731 0.271336 0.252658
vn 0.415721 0.373715 0.829164
vn -0.352932 0.276812 0.893764
vn -0.928047 0.023978 0.371692
vn -0.906826 -0.207596 -0.366838
vn -0.427341 -0.289548 -0.856470
vn 0.285080 0.009882 -0.958453
vn 0.880158 -0.094437 -0.465191
vn 0.939291 -0.141008 0.312807
vn 0.425498 -0.094439 0.900018
vn -0.346483 0.009883 0.938004
vn -0.900095 0.098749 0.424356
vn -0.940658 0.130515 -0.313253
vn -0.465964 0.098746 -0.879276
vn 0.370374 -0.144048 -0.917646
vn 0.920161 -0.084425 -0.382330
vn 0.937126 0.010440 0.348834
vn 0.466935 0.088645 0.879837
vn -0.250045 0.132862 0.959075
vn -0.856874 0.112264 0.503154
vn -0.957958 0.009730 -0.286745
vn -0.426138 -0.107055 -0.898302
vn 0.216267 0.819938 0.530029
vn 0.031882 -0.938815 0.342943
vn 0.256779 -0.959765 0.113649
vn 0.634676 0.721140 0.277749
vn 0.644771 0.664652 -0.377502
vn 0.304761 0.698973 -0.646960
vn 0.476076 0.874509 0.092656
vn 0.823701 0.544888 0.156889
vn 0.169356 -0.783624 -0.597706
vn 0.204856 0.739027 -0.641773
vn 0.379130 0.773496 -0.507903
vn 0.311596 -0.832768 -0.457609
vn 0.634941 -0.768985 0.074239
vn 0.000000 -1.000000 0.000000
vn 0.000000 -1.000000 0.000000
vn 0.569165 -0.819061 -0.072046
vn -0.303934 0.832374 -0.463442
vn -0.446771 -0.688238 -0.571597
vn -0.677397 -0.691814 -0.250052
vn -0.580489 0.744583 -0.329590
vn 0.000000 -1.000000 -0.000000
vn 0.000000 -1.000000 -0.000000
vn 0.000000 -1.000000 -0.000000
vn 0.000000 -1.000000 -0.000000
vn -0.117057 -0.889418 -0.441853
vn -0.176091 0.781046 -0.599132
vn 0.052720 0.765815 -0.640896
vn 0.121713 -0.675955 -0.726823
vn 0.058897 0.749237 -0.659678
vn -0.288617 0.811074 -0.508782
vn -0.262297 0.946992 -0.185492
vn -0.102249 0.980953 -0.165156
vn -0.085944 0.669483 0.737839
vn -0.011296 -0.942657 0.333572
vn -0.132089 -0.936699 0.324266
vn -0.080415 0.747837 0.658994
vn -0.228762 0.912256 0.339791
vn -0.059199 0.888599 0.454849
vn 0.384981 0.794516 0.469610
vn 0.712045 0.652182 0.260096
vn 0.454457 -0.887929 0.071065
vn 0.000000 -1.000000 0.000000
vn 0.000000 -1.000000 0.000000
vn 0.000000 -1.000000 -0.000000
vn -0.576553 -0.805367 0.137737
vn -0.437184 0.871070 0.223847
vn -0.342971 0.783729 -0.517822
vn -0.290537 -0.886123 -0.361073
vn -0.463821 -0.811225 0.356068
vn -0.312452 0.688411 0.654572
vn -0.754036 -0.122072 -0.645389
vn -0.990295 -0.121676 0.067162
vn -0.989965 0.129947 0.055522
vn -0.763011 0.132275 -0.632707
vn -0.653640 -0.124561 0.746484
vn -0.663865 0.121402 0.737933
vn 0.059219 -0.129902 0.989757
vn 0.032237 0.144748 0.988943
vn 0.741540 -0.137340 0.656701
vn 0.731621 0.115733 0.671816
vn 0.987097 -0.137340 -0.082325
vn 0.988196 0.115733 -0.100371
vn 0.640823 -0.130357 -0.756541
vn 0.621006 0.148060 -0.769695
vn -0.076946 -0.125397 -0.989118
vn -0.089511 0.117804 -0.988995
vn 0.000000 -1.000000 0.000000
vn 0.151260 0.985831 0.072517
vn 0.183185 0.983031 0.009647
vn 0.099832 0.993347 0.057402
vn 0.228439 0.973512 0.009525
vn 0.352629 0.934307 0.052185
vn 0.311497 0.935603 0.166181
vn 0.165205 0.979943 0.111443
vn 0.111392 0.993494 -0.023688
vn -0.606510 0.341087 0.718196
vn -0.008535 -0.025174 0.999647
vn 0.777401 0.612789 -0.141910
vn -0.844233 0.514778 0.149246
vn -0.715881 0.489172 -0.498223
vn -0.131743 0.199928 -0.970913
vn 0.592432 -0.229352 -0.772284
vn 0.882338 -0.462624 -0.086362
vn 0.652738 -0.389827 0.649590
vn -0.644170 0.039149 0.763880
vn 0.015240 0.053775 0.998437
vn 0.028561 0.155907 0.987359
vn -0.643095 0.356748 0.677613
vn -0.989411 0.008169 0.144913
vn -0.939417 0.340282 0.041272
vn -0.808801 -0.035158 -0.587030
vn -0.743318 0.167177 -0.647712
vn -0.120609 -0.061308 -0.990805
vn -0.106684 -0.085892 -0.990576
vn 0.662067 -0.042489 -0.748239
vn 0.561097 -0.306892 -0.768757
vn 0.999956 0.007335 -0.005891
vn 0.914671 -0.377548 -0.144341
vn 0.695035 0.046604 0.717464
vn 0.749189 -0.197494 0.632228
s 1
g pasted__pasted__pasted__pCylinder1
usemtl initialShadingGroup
f 1/9/1 2/10/2 10/19/3 9/18/4
f 2/10/2 3/11/5 11/20/6 10/19/3
f 3/11/5 4/12/7 12/21/8 11/20/6
f 4/12/7 5/13/9 13/22/10 12/21/8
f 5/13/9 6/14/11 14/23/12 13/22/10
f 6/14/11 7/15/13 15/24/14 14/23/12
f 7/15/13 8/16/15 16/25/16 15/24/14
f 8/16/15 1/17/1 9/26/4 16/25/16
f 2/2/2 1/1/1 17/35/17
f 3/3/5 2/2/2 17/35/17
f 4/4/7 3/3/5 17/35/17
f 5/5/9 4/4/7 17/35/17
f 6/6/11 5/5/9 17/35/17
f 7/7/13 6/6/11 17/35/17
f 8/8/15 7/7/13 17/35/17
f 1/1/1 8/8/15 17/35/17
f 9/33/4 10/32/3 20/39/18 21/40/19
f 10/32/3 11/31/6 19/38/20 20/39/18
f 11/31/6 12/30/8 18/37/21 19/38/20
f 12/30/8 13/29/10 25/44/22 18/37/21
f 13/29/10 14/28/12 24/43/23 25/44/22
f 14/28/12 15/27/14 23/42/24 24/43/23
f 15/27/14 16/34/16 22/41/25 23/42/24
f 16/34/16 9/33/4 21/40/19 22/41/25
f 43/61/26 42/62/27 44/36/28
f 45/63/29 43/61/26 44/36/28
f 46/64/30 45/63/29 44/36/28
f 47/65/31 46/64/30 44/36/28
f 48/66/32 47/65/31 44/36/28
f 49/67/33 48/66/32 44/36/28
f 50/68/34 49/67/33 44/36/28
f 42/62/27 50/68/34 44/36/28
f 19/38/20 18/37/21 26/46/35 27/45/36
f 20/39/18 19/38/20 27/45/36 28/47/37
f 21/40/19 20/39/18 28/47/37 29/48/38
f 22/41/25 21/40/19 29/48/38 30/49/39
f 23/42/24 22/41/25 30/49/39 31/50/40
f 24/43/23 23/42/24 31/50/40 32/51/41
f 25/44/22 24/43/23 32/51/41 33/52/42
f 18/37/21 25/44/22 33/52/42 26/46/35
f 27/45/36 26/46/35 34/54/43 35/53/44
f 28/47/37 27/45/36 35/53/44 36/55/45
f 29/48/38 28/47/37 36/55/45 37/56/46
f 30/49/39 29/48/38 37/56/46 38/57/47
f 31/50/40 30/49/39 38/57/47 39/58/48
f 32/51/41 31/50/40 39/58/48 40/59/49
f 33/52/42 32/51/41 40/59/49 41/60/50
f 26/46/35 33/52/42 41/60/50 34/54/43
f 35/53/44 34/54/43 42/62/27 43/61/26
f 36/55/45 35/53/44 43/61/26 45/63/29
f 37/56/46 36/55/45 45/63/29 46/64/30
f 38/57/47 37/56/46 46/64/30 47/65/31
f 39/58/48 38/57/47 47/65/31 48/66/32
f 40/59/49 39/58/48 48/66/32 49/67/33
f 41/60/50 40/59/49 49/67/33 50/68/34
f 34/54/43 41/60/50 50/68/34 42/62/27
s 3
f 74/69/51 69/70/52 52/71/53 54/72/54
f 86/73/55 87/74/56 73/75/57 65/76/58
f 71/77/59 72/78/60 56/79/61 58/80/62
f 66/81/63 70/82/64 84/83/65 85/84/66
f 65/85/58 66/86/63 85/87/66 86/88/55
f 90/89/67 81/90/68 68/91/69 63/92/70
f 76/93/71 82/94/72 83/95/73 67/96/74
f 77/97/75 78/98/76 61/99/77 60/100/78
f 88/101/79 89/102/80 79/103/81 64/104/82
f 80/105/83 75/106/84 59/107/85 62/108/86
f 79/103/81 92/109/87 93/110/88 64/104/82
f 65/76/58 73/75/57 94/111/89 95/112/90
f 95/113/90 96/114/91 66/86/63 65/85/58
f 96/115/91 97/116/92 70/82/64 66/81/63
f 98/117/93 99/118/94 76/93/71 67/96/74
f 63/92/70 68/91/69 100/119/95 91/120/96
f 97/116/92 98/117/93 67/96/74 70/82/64
f 83/95/73 84/83/65 70/82/64 67/96/74
f 60/100/78 61/99/77 72/78/60 71/77/59
f 87/74/56 88/101/79 64/104/82 73/75/57
f 93/110/88 94/111/89 73/75/57 64/104/82
f 62/108/86 59/107/85 69/70/52 74/69/51
f 68/121/69 76/93/71 99/118/94 100/122/95
f 81/123/68 82/94/72 76/93/71 68/121/69
f 55/124/97 78/98/76 77/97/75 57/125/98
f 63/126/70 79/103/81 89/102/80 90/127/67
f 91/128/96 92/109/87 79/103/81 63/126/70
f 51/129/99 75/106/84 80/105/83 53/130/100
f 57/125/98 77/97/75 82/94/72 81/123/68
f 83/95/73 82/94/72 77/97/75 60/100/78
f 71/77/59 84/83/65 83/95/73 60/100/78
f 85/84/66 84/83/65 71/77/59 58/80/62
f 86/88/55 85/87/66 58/131/62 56/132/61
f 72/78/60 87/74/56 86/73/55 56/79/61
f 61/99/77 88/101/79 87/74/56 72/78/60
f 78/98/76 89/102/80 88/101/79 61/99/77
f 90/127/67 89/102/80 78/98/76 55/124/97
f 57/133/98 81/90/68 90/89/67 55/134/97
f 53/130/100 80/105/83 92/109/87 91/128/96
f 93/110/88 92/109/87 80/105/83 62/108/86
f 74/69/51 94/111/89 93/110/88 62/108/86
f 95/112/90 94/111/89 74/69/51 54/72/54
f 52/71/53 96/114/91 95/113/90 54/72/54
f 69/135/52 97/116/92 96/115/91 52/136/53
f 59/137/85 98/117/93 97/116/92 69/135/52
f 75/138/84 99/118/94 98/117/93 59/137/85
f 100/122/95 99/118/94 75/138/84 51/139/99
f 91/120/96 100/119/95 51/129/99 53/130/100
s 10
f 101/140/101 102/141/102 110/142/103 109/143/104
f 102/141/102 103/144/105 111/145/106 110/142/103
f 103/144/105 104/146/107 112/147/108 111/145/106
f 104/146/107 105/148/109 113/149/110 112/147/108
f 105/148/109 106/150/111 114/151/112 113/149/110
f 106/150/111 107/152/113 115/153/114 114/151/112
f 107/152/113 108/154/115 116/155/116 115/153/114
f 108/154/115 101/156/101 109/157/104 116/155/116
f 102/158/102 101/159/101 117/160/117
f 103/161/105 102/158/102 117/160/117
f 104/162/107 103/161/105 117/160/117
f 105/163/109 104/162/107 117/160/117
f 106/164/111 105/163/109 117/160/117
f 107/165/113 106/164/111 117/160/117
f 108/166/115 107/165/113 117/160/117
f 101/159/101 108/166/115 117/160/117
f 109/167/104 110/168/103 120/169/118 121/170/119
f 110/168/103 111/171/106 119/172/120 120/169/118
f 111/171/106 112/173/108 118/174/121 119/172/120
f 112/173/108 113/175/110 125/176/122 118/174/121
f 113/175/110 114/177/112 124/178/123 125/176/122
f 114/177/112 115/179/114 123/180/124 124/178/123
f 115/179/114 116/181/116 122/182/125 123/180/124
f 116/181/116 109/167/104 121/170/119 122/182/125
f 127/183/126 126/184/127 128/185/128
f 129/186/129 127/183/126 128/185/128
f 130/187/130 129/186/129 128/185/128
f 131/188/131 130/187/130 128/185/128
f 132/189/132 131/188/131 128/185/128
f 133/190/133 132/189/132 128/185/128
f 134/191/134 133/190/133 128/185/128
f 126/184/127 134/191/134 128/185/128
f 142/192/135 135/193/136 143/194/137 144/195/138
f 141/196/139 142/192/135 144/195/138 145/197/140
f 140/198/141 141/196/139 145/197/140 146/199/142
f 139/200/143 140/198/141 146/199/142 147/201/144
f 138/202/145 139/200/143 147/201/144 148/203/146
f 137/204/147 138/202/145 148/203/146 149/205/148
f 136/206/149 137/204/147 149/205/148 150/207/150
f 135/193/136 136/206/149 150/207/150 143/194/137
f 118/174/121 125/176/122 136/206/149 135/193/136
f 125/176/122 124/178/123 137/204/147 136/206/149
f 124/178/123 123/180/124 138/202/145 137/204/147
f 123/180/124 122/182/125 139/200/143 138/202/145
f 122/182/125 121/170/119 140/198/141 139/200/143
f 121/170/119 120/169/118 141/196/139 140/198/141
f 120/169/118 119/172/120 142/192/135 141/196/139
f 119/172/120 118/174/121 135/193/136 142/192/135
f 144/195/138 143/194/137 126/184/127 127/183/126
f 145/197/140 144/195/138 127/183/126 129/186/129
f 146/199/142 145/197/140 129/186/129 130/187/130
f 147/201/144 146/199/142 130/187/130 131/188/131
f 148/203/146 147/201/144 131/188/131 132/189/132
f 149/205/148 148/203/146 132/189/132 133/190/133
f 150/207/150 149/205/148 133/190/133 134/191/134
f 143/194/137 150/207/150 134/191/134 126/184/127
