# This file uses centimeters as units for non-parametric coordinates.

mtllib Barrel.mtl
g default
v -23.181459 -4.173163 -43.212368
v -26.545344 -4.173163 -43.212368
v -28.227291 -4.173163 -40.299155
v -26.545346 -4.173163 -37.385948
v -23.181459 -4.173163 -37.385948
v -21.499514 -4.173163 -40.299155
v -23.181459 4.173163 -43.212368
v -26.545344 4.173163 -43.212368
v -28.227291 4.173163 -40.299155
v -26.545346 4.173163 -37.385948
v -23.181459 4.173163 -37.385948
v -21.499514 4.173163 -40.299155
v -22.930424 2.398008 -43.647171
v -20.997449 2.398008 -40.299155
v -22.930427 2.398008 -36.951141
v -26.796381 2.398008 -36.951141
v -28.729357 2.398008 -40.299155
v -26.796378 2.398008 -43.647171
v -22.930424 -2.398008 -43.647171
v -26.796378 -2.398008 -43.647171
v -28.729357 -2.398008 -40.299155
v -26.796381 -2.398008 -36.951141
v -22.930427 -2.398008 -36.951141
v -20.997449 -2.398008 -40.299155
v -23.428206 -4.106169 -42.784988
v -26.298597 -4.106169 -42.784988
v -27.733793 -4.106169 -40.299155
v -26.298599 -4.106169 -37.813328
v -23.428206 -4.106169 -37.813328
v -21.993010 -4.106169 -40.299155
v -23.428206 4.106169 -42.784988
v -26.298597 4.106169 -42.784988
v -27.733793 4.106169 -40.299155
v -26.298599 4.106169 -37.813328
v -23.428206 4.106169 -37.813328
v -21.993010 4.106169 -40.299155
v -23.428206 3.842074 -42.784988
v -26.298597 3.842074 -42.784988
v -27.733793 3.842074 -40.299155
v -26.298599 3.842074 -37.813328
v -23.428206 3.842074 -37.813328
v -21.993010 3.842074 -40.299155
v -23.428206 -3.724376 -42.784988
v -26.298597 -3.724376 -42.784988
v -24.863402 -3.724377 -40.299155
v -27.733793 -3.724377 -40.299155
v -26.298599 -3.724377 -37.813328
v -23.428206 -3.724376 -37.813328
v -21.993010 -3.724376 -40.299155
v -24.643287 3.842074 -39.917906
v -25.083517 3.842074 -39.917906
v -25.303632 3.842074 -40.299155
v -25.083517 3.842074 -40.680412
v -24.643287 3.842074 -40.680412
v -24.423173 3.842074 -40.299155
v -24.704517 3.842074 -40.023958
v -25.022286 3.842074 -40.023958
v -25.181173 3.842074 -40.299155
v -25.022286 3.842074 -40.574354
v -24.704517 3.842074 -40.574354
v -24.545632 3.842074 -40.299155
v -24.704517 3.684874 -40.023958
v -25.022286 3.684874 -40.023958
v -24.863402 3.684875 -40.299155
v -25.181173 3.684874 -40.299155
v -25.022286 3.684874 -40.574354
v -24.704517 3.684874 -40.574354
v -24.545632 3.684874 -40.299155
v -24.643287 3.930581 -39.917906
v -25.083517 3.930581 -39.917906
v -24.704517 3.930581 -40.023958
v -25.022286 3.930581 -40.023958
v -25.303632 3.930581 -40.299155
v -25.181173 3.930581 -40.299155
v -25.083517 3.930581 -40.680412
v -25.022286 3.930581 -40.574354
v -24.643287 3.930581 -40.680412
v -24.704517 3.930581 -40.574354
v -24.423173 3.930581 -40.299155
v -24.545632 3.930581 -40.299155
v -22.841306 1.199004 -43.801530
v -26.885497 1.199004 -43.801530
v -28.907597 1.199004 -40.299155
v -26.885499 1.199004 -36.796783
v -22.841308 1.199004 -36.796783
v -20.819211 1.199004 -40.299155
v -22.841306 -1.199004 -43.801530
v -20.819211 -1.199004 -40.299155
v -22.841308 -1.199004 -36.796783
v -26.885499 -1.199004 -36.796783
v -28.907597 -1.199004 -40.299155
v -26.885497 -1.199004 -43.801530
v -22.640117 0.000000 -44.149995
v -27.086686 0.000000 -44.149995
v -26.992836 1.198610 -43.987446
v -22.733967 1.198610 -43.987446
v -29.309972 0.000000 -40.299155
v -29.122275 1.198610 -40.299155
v -27.086686 0.000000 -36.448314
v -26.992838 1.198610 -36.610866
v -22.640117 0.000000 -36.448314
v -22.733969 1.198610 -36.610866
v -20.416833 0.000000 -40.299155
v -20.604534 1.198610 -40.299155
v -22.733967 -1.198610 -43.987446
v -20.604534 -1.198610 -40.299155
v -22.733969 -1.198610 -36.610866
v -26.992838 -1.198610 -36.610866
v -29.122275 -1.198610 -40.299155
v -26.992836 -1.198610 -43.987446
vt 0.578125 0.020934
vt 0.421875 0.020934
vt 0.343750 0.156250
vt 0.421875 0.291566
vt 0.578125 0.291566
vt 0.656250 0.156250
vt 0.375000 0.312500
vt 0.416667 0.312500
vt 0.458333 0.312500
vt 0.500000 0.312500
vt 0.541667 0.312500
vt 0.583333 0.312500
vt 0.625000 0.312500
vt 0.375000 0.688440
vt 0.416667 0.688440
vt 0.458333 0.688440
vt 0.500000 0.688440
vt 0.541667 0.688440
vt 0.583333 0.688440
vt 0.625000 0.688440
vt 0.578125 0.708434
vt 0.421875 0.708434
vt 0.343750 0.843750
vt 0.421875 0.979066
vt 0.578125 0.979066
vt 0.656250 0.843750
vt 0.500000 0.150000
vt 0.500000 0.837500
vt 0.625000 0.500470
vt 0.375000 0.500470
vt 0.416667 0.500470
vt 0.458333 0.500470
vt 0.500000 0.500470
vt 0.541667 0.500470
vt 0.583333 0.500470
vt 0.625000 0.594455
vt 0.375000 0.594455
vt 0.583333 0.594455
vt 0.541667 0.594455
vt 0.500000 0.594455
vt 0.458333 0.594455
vt 0.416667 0.594455
vt 0.625000 0.406485
vt 0.375000 0.406485
vt 0.416667 0.406485
vt 0.458333 0.406485
vt 0.500000 0.406485
vt 0.541667 0.406485
vt 0.583333 0.406485
vt 0.421875 0.020934
vt 0.578125 0.020934
vt 0.343750 0.156250
vt 0.421875 0.291566
vt 0.578125 0.291566
vt 0.656250 0.156250
vt 0.578125 0.979066
vt 0.421875 0.979066
vt 0.343750 0.843750
vt 0.421875 0.708434
vt 0.578125 0.708434
vt 0.656250 0.843750
vt 0.578125 0.979066
vt 0.421875 0.979066
vt 0.343750 0.843750
vt 0.421875 0.708434
vt 0.578125 0.708434
vt 0.656250 0.843750
vt 0.421875 0.020934
vt 0.578125 0.020934
vt 0.343750 0.156250
vt 0.421875 0.291566
vt 0.578125 0.291566
vt 0.656250 0.156250
vt 0.539063 0.772967
vt 0.460938 0.772967
vt 0.421875 0.840625
vt 0.460938 0.908283
vt 0.539063 0.908283
vt 0.578125 0.840625
vt 0.460938 0.772967
vt 0.539063 0.772967
vt 0.421875 0.840625
vt 0.460938 0.908283
vt 0.539063 0.908283
vt 0.578125 0.840625
vt 0.460938 0.772967
vt 0.539063 0.772967
vt 0.421875 0.840625
vt 0.460938 0.908283
vt 0.539063 0.908283
vt 0.578125 0.840625
vt 0.460938 0.772967
vt 0.539063 0.772967
vt 0.539063 0.772967
vt 0.460938 0.772967
vt 0.421875 0.840625
vt 0.421875 0.840625
vt 0.460938 0.908283
vt 0.460938 0.908283
vt 0.539063 0.908283
vt 0.539063 0.908283
vt 0.578125 0.840625
vt 0.578125 0.840625
vt 0.625000 0.547462
vt 0.375000 0.547462
vt 0.416667 0.547462
vt 0.458333 0.547462
vt 0.500000 0.547462
vt 0.541667 0.547462
vt 0.583333 0.547462
vt 0.625000 0.453477
vt 0.375000 0.453477
vt 0.583333 0.453477
vt 0.541667 0.453477
vt 0.500000 0.453477
vt 0.458333 0.453477
vt 0.416667 0.453477
vt 0.416667 0.547462
vt 0.375000 0.547462
vt 0.458333 0.547462
vt 0.500000 0.547462
vt 0.541667 0.547462
vt 0.583333 0.547462
vt 0.625000 0.547462
vt 0.583333 0.453477
vt 0.625000 0.453477
vt 0.541667 0.453477
vt 0.500000 0.453477
vt 0.458333 0.453477
vt 0.416667 0.453477
vt 0.375000 0.453477
vn 0.494565 0.147039 -0.856612
vn -0.494566 0.147040 -0.856612
vn -0.488297 0.215088 -0.845756
vn 0.488298 0.215088 -0.845756
vn -0.989131 0.147040 -0.000000
vn -0.976595 0.215088 -0.000000
vn -0.494565 0.147039 0.856612
vn -0.488297 0.215089 0.845756
vn 0.494565 0.147039 0.856612
vn 0.488297 0.215088 0.845756
vn 0.989131 0.147039 0.000000
vn 0.976595 0.215088 0.000000
vn -0.000000 -1.000000 -0.000000
vn 0.000000 -1.000000 -0.000000
vn 0.000000 -1.000000 -0.000000
vn -0.000000 -1.000000 -0.000000
vn -0.000000 -1.000000 0.000000
vn 0.000000 -1.000000 0.000000
vn 0.000000 -1.000000 -0.000000
vn 0.000000 1.000000 0.000000
vn 0.000000 1.000000 0.000000
vn -0.003632 0.999974 -0.006291
vn 0.003632 0.999974 -0.006291
vn 0.000000 1.000000 0.000000
vn -0.007264 0.999974 0.000000
vn 0.000000 1.000000 0.000000
vn -0.003632 0.999974 0.006291
vn 0.000000 1.000000 0.000000
vn 0.003632 0.999974 0.006291
vn 0.000000 1.000000 0.000000
vn 0.007264 0.999974 0.000000
vn 0.488298 -0.215088 -0.845756
vn -0.488297 -0.215088 -0.845756
vn -0.494566 -0.147040 -0.856612
vn 0.494565 -0.147039 -0.856612
vn -0.976595 -0.215088 -0.000000
vn -0.989131 -0.147040 -0.000000
vn -0.488297 -0.215089 0.845756
vn -0.494565 -0.147039 0.856612
vn 0.488297 -0.215088 0.845756
vn 0.494565 -0.147039 0.856612
vn 0.976595 -0.215088 0.000000
vn 0.989131 -0.147039 0.000000
vn 0.458263 0.399976 -0.793734
vn 0.916526 0.399976 0.000000
vn 0.458263 0.399977 0.793734
vn -0.458262 0.399978 0.793734
vn -0.916525 0.399977 -0.000000
vn -0.458263 0.399976 -0.793734
vn 0.458263 -0.399976 -0.793734
vn -0.458263 -0.399976 -0.793734
vn -0.916525 -0.399977 -0.000000
vn -0.458262 -0.399978 0.793734
vn 0.458263 -0.399977 0.793734
vn 0.916526 -0.399976 0.000000
vn -0.278576 -0.830411 0.482508
vn 0.278576 -0.830411 0.482507
vn 0.557151 -0.830411 0.000000
vn 0.278575 -0.830411 -0.482508
vn -0.278576 -0.830410 -0.482508
vn -0.557152 -0.830411 -0.000000
vn 0.225729 0.892293 0.390973
vn -0.225729 0.892293 0.390974
vn 0.451457 0.892293 0.000000
vn 0.225728 0.892293 -0.390974
vn -0.225728 0.892293 -0.390974
vn -0.451457 0.892293 0.000000
vn 0.500000 0.000000 0.866025
vn -0.500000 0.000000 0.866025
vn 1.000000 0.000000 0.000001
vn 0.499999 0.000000 -0.866026
vn -0.499999 0.000000 -0.866026
vn -1.000000 0.000000 0.000000
vn -0.500000 0.000000 0.866025
vn 0.500000 0.000000 0.866025
vn 1.000000 0.000000 0.000001
vn 0.499999 0.000000 -0.866026
vn -0.499999 0.000000 -0.866026
vn -1.000000 0.000000 0.000000
vn -0.000000 1.000000 0.000001
vn 0.000000 1.000000 0.000001
vn -0.000000 1.000000 0.000000
vn -0.000001 1.000000 0.000000
vn -0.000000 1.000000 -0.000001
vn 0.000000 1.000000 -0.000001
vn 0.000001 1.000000 0.000000
vn -0.391556 0.621876 0.678199
vn 0.391557 0.621876 0.678199
vn -0.206881 0.910385 -0.358329
vn 0.206881 0.910385 -0.358330
vn -0.783112 0.621881 0.000000
vn 0.413757 0.910388 0.000000
vn -0.391558 0.621889 -0.678186
vn 0.206876 0.910391 0.358316
vn 0.391559 0.621889 -0.678185
vn -0.206876 0.910392 0.358315
vn 0.783112 0.621881 0.000000
vn -0.413758 0.910387 0.000000
vn 0.499999 0.000000 -0.866026
vn -0.500000 0.000000 -0.866025
vn -0.500000 0.000000 -0.866025
vn 0.499999 0.000000 -0.866026
vn 1.000000 0.000000 -0.000000
vn 1.000000 0.000000 -0.000000
vn 0.500003 0.000000 0.866024
vn 0.500003 0.000000 0.866023
vn -0.500004 0.000000 0.866023
vn -0.500005 0.000000 0.866023
vn -1.000000 0.000000 0.000000
vn -1.000000 0.000000 0.000000
vn 0.500001 -0.000000 -0.866025
vn -0.500001 -0.000000 -0.866025
vn -0.483448 0.255165 -0.837358
vn 0.483448 0.255166 -0.837358
vn -1.000000 0.000000 -0.000000
vn -0.966897 0.255166 -0.000000
vn -0.500000 -0.000000 0.866026
vn -0.483448 0.255167 0.837357
vn 0.500001 0.000000 0.866025
vn 0.483448 0.255168 0.837358
vn 1.000000 -0.000000 0.000000
vn 0.966897 0.255168 0.000000
vn 0.966897 -0.255168 0.000000
vn 0.483448 -0.255166 -0.837358
vn 0.483448 -0.255168 0.837358
vn -0.483448 -0.255167 0.837357
vn -0.966897 -0.255166 -0.000000
vn -0.483448 -0.255165 -0.837358
vn -0.000918 0.999998 -0.001590
vn 0.000918 0.999998 -0.001590
vn -0.001835 0.999998 0.000000
vn -0.000918 0.999998 0.001590
vn 0.000918 0.999998 0.001590
vn 0.001835 0.999998 0.000000
vn 0.001835 -0.999998 0.000000
vn 0.000918 -0.999998 -0.001590
vn 0.000918 -0.999998 0.001590
vn -0.000918 -0.999998 0.001590
vn -0.001835 -0.999998 0.000000
vn -0.000918 -0.999998 -0.001590
s 1
g pCylinder5
usemtl initialShadingGroup
f 81/105/1 82/106/2 18/42/3 13/37/4
f 82/106/2 83/107/5 17/41/6 18/42/3
f 83/107/5 84/108/7 16/40/8 17/41/6
f 84/108/7 85/109/9 15/39/10 16/40/8
f 85/109/9 86/110/11 14/38/12 15/39/10
f 86/110/11 81/104/1 13/36/4 14/38/12
s 2
f 44/68/13 43/69/14 45/27/15
f 46/70/16 44/68/13 45/27/15
f 47/71/17 46/70/16 45/27/15
f 48/72/18 47/71/17 45/27/15
f 49/73/19 48/72/18 45/27/15
f 43/69/14 49/73/19 45/27/15
s 3
f 37/62/20 38/63/21 53/77/22 54/78/23
f 38/63/21 39/64/24 52/76/25 53/77/22
f 39/64/24 40/65/26 51/75/27 52/76/25
f 40/65/26 41/66/28 50/74/29 51/75/27
f 41/66/28 42/67/30 55/79/31 50/74/29
f 42/67/30 37/62/20 54/78/23 55/79/31
s 4
f 19/44/32 20/45/33 92/117/34 87/112/35
f 20/45/33 21/46/36 91/116/37 92/117/34
f 21/46/36 22/47/38 90/115/39 91/116/37
f 22/47/38 23/48/40 89/114/41 90/115/39
f 23/48/40 24/49/42 88/113/43 89/114/41
f 24/49/42 19/43/32 87/111/35 88/113/43
s 1
f 14/38/12 13/36/4 7/20/44 12/19/45
f 15/39/10 14/38/12 12/19/45 11/18/46
f 16/40/8 15/39/10 11/18/46 10/17/47
f 17/41/6 16/40/8 10/17/47 9/16/48
f 18/42/3 17/41/6 9/16/48 8/15/49
f 13/37/4 18/42/3 8/15/49 7/14/44
s 4
f 1/7/50 2/8/51 20/45/33 19/44/32
f 2/8/51 3/9/52 21/46/36 20/45/33
f 3/9/52 4/10/53 22/47/38 21/46/36
f 4/10/53 5/11/54 23/48/40 22/47/38
f 5/11/54 6/12/55 24/49/42 23/48/40
f 6/12/55 1/13/50 19/43/32 24/49/42
f 2/2/51 1/1/50 25/51/56 26/50/57
f 3/3/52 2/2/51 26/50/57 27/52/58
f 4/4/53 3/3/52 27/52/58 28/53/59
f 5/5/54 4/4/53 28/53/59 29/54/60
f 6/6/55 5/5/54 29/54/60 30/55/61
f 1/1/50 6/6/55 30/55/61 25/51/56
s 1
f 7/25/44 8/24/49 32/57/62 31/56/63
f 8/24/49 9/23/48 33/58/64 32/57/62
f 9/23/48 10/22/47 34/59/65 33/58/64
f 10/22/47 11/21/46 35/60/66 34/59/65
f 11/21/46 12/26/45 36/61/67 35/60/66
f 12/26/45 7/25/44 31/56/63 36/61/67
f 31/56/63 32/57/62 38/63/68 37/62/69
f 32/57/62 33/58/64 39/64/70 38/63/68
f 33/58/64 34/59/65 40/65/71 39/64/70
f 34/59/65 35/60/66 41/66/72 40/65/71
f 35/60/66 36/61/67 42/67/73 41/66/72
f 36/61/67 31/56/63 37/62/69 42/67/73
s 4
f 26/50/57 25/51/56 43/69/74 44/68/75
f 27/52/58 26/50/57 44/68/75 46/70/76
f 28/53/59 27/52/58 46/70/76 47/71/77
f 29/54/60 28/53/59 47/71/77 48/72/78
f 30/55/61 29/54/60 48/72/78 49/73/79
f 25/51/56 30/55/61 49/73/79 43/69/74
s 5
f 63/86/80 62/87/81 64/28/82
f 65/88/83 63/86/80 64/28/82
f 66/89/84 65/88/83 64/28/82
f 67/90/85 66/89/84 64/28/82
f 68/91/86 67/90/85 64/28/82
f 62/87/81 68/91/86 64/28/82
s 3
f 70/92/87 69/93/88 71/94/89 72/95/90
f 73/96/91 70/92/87 72/95/90 74/97/92
f 75/98/93 73/96/91 74/97/92 76/99/94
f 77/100/95 75/98/93 76/99/94 78/101/96
f 79/102/97 77/100/95 78/101/96 80/103/98
f 69/93/88 79/102/97 80/103/98 71/94/89
f 57/80/99 56/81/100 62/87/101 63/86/102
f 58/82/103 57/80/99 63/86/102 65/88/104
f 59/83/105 58/82/103 65/88/104 66/89/106
f 60/84/107 59/83/105 66/89/106 67/90/108
f 61/85/109 60/84/107 67/90/108 68/91/110
f 56/81/100 61/85/109 68/91/110 62/87/101
f 51/75/27 50/74/29 69/93/88 70/92/87
f 56/81/100 57/80/99 72/95/90 71/94/89
f 52/76/25 51/75/27 70/92/87 73/96/91
f 57/80/99 58/82/103 74/97/92 72/95/90
f 53/77/22 52/76/25 73/96/91 75/98/93
f 58/82/103 59/83/105 76/99/94 74/97/92
f 54/78/23 53/77/22 75/98/93 77/100/95
f 59/83/105 60/84/107 78/101/96 76/99/94
f 55/79/31 54/78/23 77/100/95 79/102/97
f 60/84/107 61/85/109 80/103/98 78/101/96
f 50/74/29 55/79/31 79/102/97 69/93/88
f 61/85/109 56/81/100 71/94/89 80/103/98
s 6
f 93/30/111 94/31/112 95/118/113 96/119/114
f 94/31/112 97/32/115 98/120/116 95/118/113
f 97/32/115 99/33/117 100/121/118 98/120/116
f 99/33/117 101/34/119 102/122/120 100/121/118
f 101/34/119 103/35/121 104/123/122 102/122/120
f 103/35/121 93/29/111 96/124/114 104/123/122
f 106/125/123 105/126/124 93/29/111 103/35/121
f 107/127/125 106/125/123 103/35/121 101/34/119
f 108/128/126 107/127/125 101/34/119 99/33/117
f 109/129/127 108/128/126 99/33/117 97/32/115
f 110/130/128 109/129/127 97/32/115 94/31/112
f 105/131/124 110/130/128 94/31/112 93/30/111
f 82/106/129 81/105/130 96/119/114 95/118/113
f 83/107/131 82/106/129 95/118/113 98/120/116
f 84/108/132 83/107/131 98/120/116 100/121/118
f 85/109/133 84/108/132 100/121/118 102/122/120
f 86/110/134 85/109/133 102/122/120 104/123/122
f 81/104/130 86/110/134 104/123/122 96/124/114
f 88/113/135 87/111/136 105/126/124 106/125/123
f 89/114/137 88/113/135 106/125/123 107/127/125
f 90/115/138 89/114/137 107/127/125 108/128/126
f 91/116/139 90/115/138 108/128/126 109/129/127
f 92/117/140 91/116/139 109/129/127 110/130/128
f 87/112/136 92/117/140 110/130/128 105/131/124
