# This file uses centimeters as units for non-parametric coordinates.

mtllib Barrel.mtl
g default
v 1.683563 0.001123 -2.903241
v -1.680320 0.001123 -2.903241
v -3.362268 0.001123 0.009970
v -1.680322 0.001123 2.923178
v 1.683563 0.001123 2.923178
v 3.365509 0.001123 0.009970
v 1.683563 8.347449 -2.903241
v -1.680320 8.347449 -2.903241
v -3.362268 8.347449 0.009970
v -1.680322 8.347449 2.923178
v 1.683563 8.347449 2.923178
v 3.365509 8.347449 0.009970
v 1.934599 6.572294 -3.338044
v 3.867573 6.572294 0.009970
v 1.934595 6.572294 3.357985
v -1.931358 6.572294 3.357985
v -3.864334 6.572294 0.009970
v -1.931354 6.572294 -3.338044
v 1.934599 1.776278 -3.338044
v -1.931354 1.776278 -3.338044
v -3.864334 1.776278 0.009970
v -1.931358 1.776278 3.357985
v 1.934595 1.776278 3.357985
v 3.867573 1.776278 0.009970
v 1.436817 0.068117 -2.475862
v -1.433574 0.068117 -2.475862
v -2.868770 0.068117 0.009970
v -1.433576 0.068117 2.495799
v 1.436817 0.068117 2.495799
v 2.872013 0.068117 0.009970
v 1.436817 8.280456 -2.475862
v -1.433574 8.280456 -2.475862
v -2.868770 8.280456 0.009970
v -1.433576 8.280456 2.495799
v 1.436817 8.280456 2.495799
v 2.872013 8.280456 0.009970
v 1.436817 8.016360 -2.475862
v -1.433574 8.016360 -2.475862
v -2.868770 8.016360 0.009970
v -1.433576 8.016360 2.495799
v 1.436817 8.016360 2.495799
v 2.872013 8.016360 0.009970
v 1.436817 0.449910 -2.475862
v -1.433574 0.449910 -2.475862
v 0.001621 0.449909 0.009970
v -2.868770 0.449909 0.009970
v -1.433576 0.449909 2.495799
v 1.436817 0.449910 2.495799
v 2.872013 0.449910 0.009970
v 0.221735 8.016360 0.391219
v -0.218494 8.016360 0.391219
v -0.438610 8.016360 0.009970
v -0.218494 8.016360 -0.371286
v 0.221735 8.016360 -0.371286
v 0.441849 8.016360 0.009970
v 0.160506 8.016360 0.285170
v -0.157263 8.016360 0.285170
v -0.316150 8.016360 0.009970
v -0.157263 8.016360 -0.265226
v 0.160506 8.016360 -0.265226
v 0.319391 8.016360 0.009970
v 0.160506 7.859160 0.285170
v -0.157263 7.859160 0.285170
v 0.001621 7.859161 0.009970
v -0.316150 7.859160 0.009970
v -0.157263 7.859160 -0.265226
v 0.160506 7.859160 -0.265226
v 0.319391 7.859160 0.009970
v 0.221735 8.104867 0.391219
v -0.218494 8.104867 0.391219
v 0.160506 8.104867 0.285170
v -0.157263 8.104867 0.285170
v -0.438610 8.104867 0.009970
v -0.316150 8.104867 0.009970
v -0.218494 8.104867 -0.371286
v -0.157263 8.104867 -0.265226
v 0.221735 8.104867 -0.371286
v 0.160506 8.104867 -0.265226
v 0.441849 8.104867 0.009970
v 0.319391 8.104867 0.009970
v 2.023716 5.373290 -3.492402
v -2.020473 5.373290 -3.492402
v -4.042574 5.373290 0.009970
v -2.020475 5.373290 3.512343
v 2.023714 5.373290 3.512343
v 4.045813 5.373290 0.009970
v 2.023716 2.975282 -3.492402
v 4.045813 2.975282 0.009970
v 2.023714 2.975282 3.512343
v -2.020475 2.975282 3.512343
v -4.042574 2.975282 0.009970
v -2.020473 2.975282 -3.492402
v 2.224905 4.174286 -3.840867
v -2.221662 4.174286 -3.840867
v -2.127813 5.372896 -3.678319
v 2.131056 5.372896 -3.678319
v -4.444950 4.174286 0.009970
v -4.257251 5.372896 0.009970
v -2.221662 4.174286 3.860812
v -2.127815 5.372896 3.698260
v 2.224905 4.174286 3.860812
v 2.131054 5.372896 3.698260
v 4.448189 4.174286 0.009970
v 4.260489 5.372896 0.009970
v 2.131056 2.975676 -3.678319
v 4.260489 2.975676 0.009970
v 2.131054 2.975676 3.698260
v -2.127815 2.975676 3.698260
v -4.257251 2.975676 0.009970
v -2.127813 2.975676 -3.678319
vt 0.375000 0.547462
vt 0.416667 0.547462
vt 0.416667 0.594455
vt 0.375000 0.594455
vt 0.458333 0.547462
vt 0.458333 0.594455
vt 0.500000 0.547462
vt 0.500000 0.594455
vt 0.541667 0.547462
vt 0.541667 0.594455
vt 0.583333 0.547462
vt 0.583333 0.594455
vt 0.625000 0.547462
vt 0.625000 0.594455
vt 0.421875 0.020934
vt 0.578125 0.020934
vt 0.500000 0.150000
vt 0.343750 0.156250
vt 0.421875 0.291566
vt 0.578125 0.291566
vt 0.656250 0.156250
vt 0.578125 0.979066
vt 0.421875 0.979066
vt 0.460938 0.908283
vt 0.539063 0.908283
vt 0.343750 0.843750
vt 0.421875 0.840625
vt 0.421875 0.708434
vt 0.460938 0.772967
vt 0.578125 0.708434
vt 0.539063 0.772967
vt 0.656250 0.843750
vt 0.578125 0.840625
vt 0.375000 0.406485
vt 0.416667 0.406485
vt 0.416667 0.453477
vt 0.375000 0.453477
vt 0.458333 0.406485
vt 0.458333 0.453477
vt 0.500000 0.406485
vt 0.500000 0.453477
vt 0.541667 0.406485
vt 0.541667 0.453477
vt 0.583333 0.406485
vt 0.583333 0.453477
vt 0.625000 0.406485
vt 0.625000 0.453477
vt 0.625000 0.688440
vt 0.583333 0.688440
vt 0.541667 0.688440
vt 0.500000 0.688440
vt 0.458333 0.688440
vt 0.416667 0.688440
vt 0.375000 0.688440
vt 0.375000 0.312500
vt 0.416667 0.312500
vt 0.458333 0.312500
vt 0.500000 0.312500
vt 0.541667 0.312500
vt 0.583333 0.312500
vt 0.625000 0.312500
vt 0.421875 0.020934
vt 0.578125 0.020934
vt 0.578125 0.020934
vt 0.421875 0.020934
vt 0.343750 0.156250
vt 0.343750 0.156250
vt 0.421875 0.291566
vt 0.421875 0.291566
vt 0.578125 0.291566
vt 0.578125 0.291566
vt 0.656250 0.156250
vt 0.656250 0.156250
vt 0.578125 0.979066
vt 0.421875 0.979066
vt 0.421875 0.979066
vt 0.578125 0.979066
vt 0.343750 0.843750
vt 0.343750 0.843750
vt 0.421875 0.708434
vt 0.421875 0.708434
vt 0.578125 0.708434
vt 0.578125 0.708434
vt 0.656250 0.843750
vt 0.656250 0.843750
vt 0.460938 0.772967
vt 0.539063 0.772967
vt 0.500000 0.837500
vt 0.421875 0.840625
vt 0.460938 0.908283
vt 0.539063 0.908283
vt 0.578125 0.840625
vt 0.460938 0.772967
vt 0.539063 0.772967
vt 0.539063 0.772967
vt 0.460938 0.772967
vt 0.421875 0.840625
vt 0.421875 0.840625
vt 0.460938 0.908283
vt 0.460938 0.908283
vt 0.539063 0.908283
vt 0.539063 0.908283
vt 0.578125 0.840625
vt 0.578125 0.840625
vt 0.460938 0.772967
vt 0.539063 0.772967
vt 0.421875 0.840625
vt 0.460938 0.908283
vt 0.539063 0.908283
vt 0.578125 0.840625
vt 0.375000 0.500470
vt 0.416667 0.500470
vt 0.416667 0.547462
vt 0.375000 0.547462
vt 0.458333 0.500470
vt 0.458333 0.547462
vt 0.500000 0.500470
vt 0.500000 0.547462
vt 0.541667 0.500470
vt 0.541667 0.547462
vt 0.583333 0.500470
vt 0.583333 0.547462
vt 0.625000 0.500470
vt 0.625000 0.547462
vt 0.583333 0.453477
vt 0.625000 0.453477
vt 0.541667 0.453477
vt 0.500000 0.453477
vt 0.458333 0.453477
vt 0.416667 0.453477
vt 0.375000 0.453477
vn 0.494565 0.147039 -0.856612
vn -0.494566 0.147040 -0.856612
vn -0.488297 0.215088 -0.845756
vn 0.488298 0.215088 -0.845756
vn -0.494566 0.147040 -0.856612
vn -0.989131 0.147040 -0.000000
vn -0.976595 0.215088 -0.000000
vn -0.488297 0.215088 -0.845756
vn -0.989131 0.147040 -0.000000
vn -0.494565 0.147039 0.856612
vn -0.488297 0.215089 0.845756
vn -0.976595 0.215088 -0.000000
vn -0.494565 0.147039 0.856612
vn 0.494565 0.147039 0.856612
vn 0.488297 0.215088 0.845756
vn -0.488297 0.215089 0.845756
vn 0.494565 0.147039 0.856612
vn 0.989131 0.147039 0.000000
vn 0.976595 0.215088 0.000000
vn 0.488297 0.215088 0.845756
vn 0.989131 0.147039 0.000000
vn 0.494565 0.147039 -0.856612
vn 0.488298 0.215088 -0.845756
vn 0.976595 0.215088 0.000000
vn 0.000000 -1.000000 0.000000
vn 0.000000 -1.000000 0.000000
vn 0.000000 -1.000000 0.000000
vn 0.000000 -1.000000 0.000000
vn 0.000000 -1.000000 0.000000
vn 0.000000 -1.000000 0.000000
vn 0.000000 -1.000000 0.000000
vn 0.000000 -1.000000 0.000000
vn 0.000000 -1.000000 0.000000
vn 0.000000 -1.000000 0.000000
vn 0.000000 -1.000000 0.000000
vn 0.000000 -1.000000 0.000000
vn 0.000000 -1.000000 0.000000
vn 0.000000 -1.000000 0.000000
vn 0.000000 -1.000000 0.000000
vn 0.000000 -1.000000 0.000000
vn 0.000000 -1.000000 0.000000
vn 0.000000 -1.000000 0.000000
vn 0.000000 1.000000 0.000000
vn 0.000000 1.000000 0.000000
vn -0.003632 0.999974 -0.006291
vn 0.003632 0.999974 -0.006291
vn 0.000000 1.000000 0.000000
vn 0.000000 1.000000 0.000000
vn -0.007264 0.999974 0.000000
vn -0.003632 0.999974 -0.006291
vn 0.000000 1.000000 0.000000
vn 0.000000 1.000000 0.000000
vn -0.003632 0.999974 0.006291
vn -0.007264 0.999974 0.000000
vn 0.000000 1.000000 0.000000
vn 0.000000 1.000000 0.000000
vn 0.003632 0.999974 0.006291
vn -0.003632 0.999974 0.006291
vn 0.000000 1.000000 0.000000
vn 0.000000 1.000000 0.000000
vn 0.007264 0.999974 0.000000
vn 0.003632 0.999974 0.006291
vn 0.000000 1.000000 0.000000
vn 0.000000 1.000000 0.000000
vn 0.003632 0.999974 -0.006291
vn 0.007264 0.999974 0.000000
vn 0.488298 -0.215088 -0.845756
vn -0.488297 -0.215088 -0.845756
vn -0.494566 -0.147040 -0.856612
vn 0.494565 -0.147039 -0.856612
vn -0.488297 -0.215088 -0.845756
vn -0.976595 -0.215088 0.000000
vn -0.989131 -0.147040 0.000000
vn -0.494566 -0.147040 -0.856612
vn -0.976595 -0.215088 0.000000
vn -0.488297 -0.215089 0.845756
vn -0.494565 -0.147039 0.856612
vn -0.989131 -0.147040 0.000000
vn -0.488297 -0.215089 0.845756
vn 0.488297 -0.215088 0.845756
vn 0.494565 -0.147039 0.856612
vn -0.494565 -0.147039 0.856612
vn 0.488297 -0.215088 0.845756
vn 0.976595 -0.215088 0.000000
vn 0.989131 -0.147039 0.000000
vn 0.494565 -0.147039 0.856612
vn 0.976595 -0.215088 0.000000
vn 0.488298 -0.215088 -0.845756
vn 0.494565 -0.147039 -0.856612
vn 0.989131 -0.147039 0.000000
vn 0.976595 0.215088 0.000000
vn 0.488298 0.215088 -0.845756
vn 0.458263 0.399976 -0.793734
vn 0.916526 0.399976 0.000000
vn 0.488297 0.215088 0.845756
vn 0.976595 0.215088 0.000000
vn 0.916526 0.399976 0.000000
vn 0.458263 0.399977 0.793734
vn -0.488297 0.215089 0.845756
vn 0.488297 0.215088 0.845756
vn 0.458263 0.399977 0.793734
vn -0.458262 0.399978 0.793734
vn -0.976595 0.215088 -0.000000
vn -0.488297 0.215089 0.845756
vn -0.458262 0.399978 0.793734
vn -0.916525 0.399977 -0.000000
vn -0.488297 0.215088 -0.845756
vn -0.976595 0.215088 -0.000000
vn -0.916525 0.399977 -0.000000
vn -0.458263 0.399976 -0.793734
vn 0.488298 0.215088 -0.845756
vn -0.488297 0.215088 -0.845756
vn -0.458263 0.399976 -0.793734
vn 0.458263 0.399976 -0.793734
vn 0.458263 -0.399976 -0.793734
vn -0.458263 -0.399976 -0.793734
vn -0.488297 -0.215088 -0.845756
vn 0.488298 -0.215088 -0.845756
vn -0.458263 -0.399976 -0.793734
vn -0.916525 -0.399977 0.000000
vn -0.976595 -0.215088 0.000000
vn -0.488297 -0.215088 -0.845756
vn -0.916525 -0.399977 0.000000
vn -0.458262 -0.399978 0.793734
vn -0.488297 -0.215089 0.845756
vn -0.976595 -0.215088 0.000000
vn -0.458262 -0.399978 0.793734
vn 0.458263 -0.399977 0.793734
vn 0.488297 -0.215088 0.845756
vn -0.488297 -0.215089 0.845756
vn 0.458263 -0.399977 0.793734
vn 0.916526 -0.399976 0.000000
vn 0.976595 -0.215088 0.000000
vn 0.488297 -0.215088 0.845756
vn 0.916526 -0.399976 0.000000
vn 0.458263 -0.399976 -0.793734
vn 0.488298 -0.215088 -0.845756
vn 0.976595 -0.215088 0.000000
vn -0.458263 -0.399976 -0.793734
vn 0.458263 -0.399976 -0.793734
vn -0.278576 -0.830411 0.482508
vn 0.278576 -0.830411 0.482507
vn -0.916525 -0.399977 0.000000
vn -0.458263 -0.399976 -0.793734
vn 0.278576 -0.830411 0.482507
vn 0.557151 -0.830411 0.000000
vn -0.458262 -0.399978 0.793734
vn -0.916525 -0.399977 0.000000
vn 0.557151 -0.830411 0.000000
vn 0.278575 -0.830411 -0.482508
vn 0.458263 -0.399977 0.793734
vn -0.458262 -0.399978 0.793734
vn 0.278575 -0.830411 -0.482508
vn -0.278576 -0.830410 -0.482508
vn 0.916526 -0.399976 0.000000
vn 0.458263 -0.399977 0.793734
vn -0.278576 -0.830410 -0.482508
vn -0.557152 -0.830411 0.000000
vn 0.458263 -0.399976 -0.793734
vn 0.916526 -0.399976 0.000000
vn -0.557152 -0.830411 0.000000
vn -0.278576 -0.830411 0.482508
vn 0.458263 0.399976 -0.793734
vn -0.458263 0.399976 -0.793734
vn 0.225729 0.892293 0.390973
vn -0.225729 0.892293 0.390974
vn -0.458263 0.399976 -0.793734
vn -0.916525 0.399977 -0.000000
vn 0.451457 0.892293 0.000000
vn 0.225729 0.892293 0.390973
vn -0.916525 0.399977 -0.000000
vn -0.458262 0.399978 0.793734
vn 0.225728 0.892293 -0.390974
vn 0.451457 0.892293 0.000000
vn -0.458262 0.399978 0.793734
vn 0.458263 0.399977 0.793734
vn -0.225728 0.892293 -0.390974
vn 0.225728 0.892293 -0.390974
vn 0.458263 0.399977 0.793734
vn 0.916526 0.399976 0.000000
vn -0.451457 0.892293 0.000000
vn -0.225728 0.892293 -0.390974
vn 0.916526 0.399976 0.000000
vn 0.458263 0.399976 -0.793734
vn -0.225729 0.892293 0.390974
vn -0.451457 0.892293 0.000000
vn -0.225729 0.892293 0.390974
vn 0.225729 0.892293 0.390973
vn 0.500000 0.000000 0.866025
vn -0.500000 0.000000 0.866025
vn 0.225729 0.892293 0.390973
vn 0.451457 0.892293 0.000000
vn 1.000000 0.000000 0.000001
vn 0.500000 0.000000 0.866025
vn 0.451457 0.892293 0.000000
vn 0.225728 0.892293 -0.390974
vn 0.499999 0.000000 -0.866026
vn 1.000000 0.000000 0.000001
vn 0.225728 0.892293 -0.390974
vn -0.225728 0.892293 -0.390974
vn -0.499999 0.000000 -0.866026
vn 0.499999 0.000000 -0.866026
vn -0.225728 0.892293 -0.390974
vn -0.451457 0.892293 0.000000
vn -1.000000 0.000000 0.000000
vn -0.499999 0.000000 -0.866026
vn -0.451457 0.892293 0.000000
vn -0.225729 0.892293 0.390974
vn -0.500000 0.000000 0.866025
vn -1.000000 0.000000 0.000000
vn 0.278576 -0.830411 0.482507
vn -0.278576 -0.830411 0.482508
vn -0.500000 0.000000 0.866025
vn 0.500000 0.000000 0.866025
vn 0.557151 -0.830411 0.000000
vn 0.278576 -0.830411 0.482507
vn 0.500000 0.000000 0.866025
vn 1.000000 0.000000 0.000001
vn 0.278575 -0.830411 -0.482508
vn 0.557151 -0.830411 0.000000
vn 1.000000 0.000000 0.000001
vn 0.499999 0.000000 -0.866026
vn -0.278576 -0.830410 -0.482508
vn 0.278575 -0.830411 -0.482508
vn 0.499999 0.000000 -0.866026
vn -0.499999 0.000000 -0.866026
vn -0.557152 -0.830411 0.000000
vn -0.278576 -0.830410 -0.482508
vn -0.499999 0.000000 -0.866026
vn -1.000000 0.000000 0.000000
vn -0.278576 -0.830411 0.482508
vn -0.557152 -0.830411 0.000000
vn -1.000000 0.000000 0.000000
vn -0.500000 0.000000 0.866025
vn 0.000000 1.000000 0.000001
vn 0.000000 1.000000 0.000001
vn 0.000000 1.000000 0.000000
vn -0.000001 1.000000 0.000000
vn 0.000000 1.000000 0.000001
vn 0.000000 1.000000 0.000000
vn -0.000000 1.000000 -0.000001
vn -0.000001 1.000000 0.000000
vn 0.000000 1.000000 0.000000
vn 0.000000 1.000000 -0.000001
vn -0.000000 1.000000 -0.000001
vn 0.000000 1.000000 0.000000
vn 0.000001 1.000000 0.000000
vn 0.000000 1.000000 -0.000001
vn 0.000000 1.000000 0.000000
vn 0.000000 1.000000 0.000001
vn 0.000001 1.000000 0.000000
vn 0.000000 1.000000 0.000000
vn -0.391556 0.621876 0.678199
vn 0.391557 0.621876 0.678199
vn -0.206881 0.910385 -0.358329
vn 0.206881 0.910385 -0.358330
vn -0.783112 0.621881 0.000000
vn -0.391556 0.621876 0.678199
vn 0.206881 0.910385 -0.358330
vn 0.413757 0.910387 0.000000
vn -0.391558 0.621889 -0.678186
vn -0.783112 0.621881 0.000000
vn 0.413757 0.910387 0.000000
vn 0.206876 0.910391 0.358316
vn 0.391559 0.621889 -0.678185
vn -0.391558 0.621889 -0.678186
vn 0.206876 0.910391 0.358316
vn -0.206876 0.910392 0.358315
vn 0.783112 0.621881 0.000000
vn 0.391559 0.621889 -0.678185
vn -0.206876 0.910392 0.358315
vn -0.413758 0.910387 0.000000
vn 0.391557 0.621876 0.678199
vn 0.783112 0.621881 0.000000
vn -0.413758 0.910387 0.000000
vn -0.206881 0.910385 -0.358329
vn 0.499999 0.000000 -0.866026
vn -0.500000 0.000000 -0.866025
vn -0.500000 0.000000 -0.866025
vn 0.499999 0.000000 -0.866026
vn 1.000000 0.000000 0.000000
vn 0.499999 0.000000 -0.866026
vn 0.499999 0.000000 -0.866026
vn 1.000000 0.000000 0.000000
vn 0.500003 0.000000 0.866024
vn 1.000000 0.000000 0.000000
vn 1.000000 0.000000 0.000000
vn 0.500003 0.000000 0.866024
vn -0.500004 0.000000 0.866023
vn 0.500003 0.000000 0.866024
vn 0.500003 0.000000 0.866024
vn -0.500005 0.000000 0.866023
vn -1.000000 0.000000 0.000000
vn -0.500004 0.000000 0.866023
vn -0.500005 0.000000 0.866023
vn -1.000000 0.000000 0.000000
vn -0.500000 0.000000 -0.866025
vn -1.000000 0.000000 0.000000
vn -1.000000 0.000000 0.000000
vn -0.500000 0.000000 -0.866025
vn -0.003632 0.999974 0.006291
vn 0.003632 0.999974 0.006291
vn 0.391557 0.621876 0.678199
vn -0.391556 0.621876 0.678199
vn -0.500000 0.000000 -0.866025
vn 0.499999 0.000000 -0.866026
vn 0.206881 0.910385 -0.358330
vn -0.206881 0.910385 -0.358329
vn -0.007264 0.999974 0.000000
vn -0.003632 0.999974 0.006291
vn -0.391556 0.621876 0.678199
vn -0.783112 0.621881 0.000000
vn 0.499999 0.000000 -0.866026
vn 1.000000 0.000000 0.000000
vn 0.413757 0.910387 0.000000
vn 0.206881 0.910385 -0.358330
vn -0.003632 0.999974 -0.006291
vn -0.007264 0.999974 0.000000
vn -0.783112 0.621881 0.000000
vn -0.391558 0.621889 -0.678186
vn 1.000000 0.000000 0.000000
vn 0.500003 0.000000 0.866024
vn 0.206876 0.910391 0.358316
vn 0.413757 0.910387 0.000000
vn 0.003632 0.999974 -0.006291
vn -0.003632 0.999974 -0.006291
vn -0.391558 0.621889 -0.678186
vn 0.391559 0.621889 -0.678185
vn 0.500003 0.000000 0.866024
vn -0.500004 0.000000 0.866023
vn -0.206876 0.910392 0.358315
vn 0.206876 0.910391 0.358316
vn 0.007264 0.999974 0.000000
vn 0.003632 0.999974 -0.006291
vn 0.391559 0.621889 -0.678185
vn 0.783112 0.621881 0.000000
vn -0.500004 0.000000 0.866023
vn -1.000000 0.000000 0.000000
vn -0.413758 0.910387 0.000000
vn -0.206876 0.910392 0.358315
vn 0.003632 0.999974 0.006291
vn 0.007264 0.999974 0.000000
vn 0.783112 0.621881 0.000000
vn 0.391557 0.621876 0.678199
vn -1.000000 0.000000 0.000000
vn -0.500000 0.000000 -0.866025
vn -0.206881 0.910385 -0.358329
vn -0.413758 0.910387 0.000000
vn 0.500001 0.000000 -0.866025
vn -0.500001 0.000000 -0.866025
vn -0.483448 0.255165 -0.837358
vn 0.483448 0.255166 -0.837358
vn -0.500001 0.000000 -0.866025
vn -1.000000 0.000000 -0.000000
vn -0.966897 0.255166 -0.000000
vn -0.483448 0.255165 -0.837358
vn -1.000000 0.000000 -0.000000
vn -0.500000 0.000000 0.866026
vn -0.483448 0.255167 0.837357
vn -0.966897 0.255166 -0.000000
vn -0.500000 0.000000 0.866026
vn 0.500001 0.000000 0.866025
vn 0.483448 0.255168 0.837358
vn -0.483448 0.255167 0.837357
vn 0.500001 0.000000 0.866025
vn 1.000000 -0.000000 0.000000
vn 0.966897 0.255168 0.000000
vn 0.483448 0.255168 0.837358
vn 1.000000 -0.000000 0.000000
vn 0.500001 0.000000 -0.866025
vn 0.483448 0.255166 -0.837358
vn 0.966897 0.255168 0.000000
vn 0.966897 -0.255168 0.000000
vn 0.483448 -0.255166 -0.837358
vn 0.500001 0.000000 -0.866025
vn 1.000000 -0.000000 0.000000
vn 0.483448 -0.255168 0.837358
vn 0.966897 -0.255168 0.000000
vn 1.000000 -0.000000 0.000000
vn 0.500001 0.000000 0.866025
vn -0.483448 -0.255167 0.837357
vn 0.483448 -0.255168 0.837358
vn 0.500001 0.000000 0.866025
vn -0.500000 0.000000 0.866026
vn -0.966897 -0.255166 0.000000
vn -0.483448 -0.255167 0.837357
vn -0.500000 0.000000 0.866026
vn -1.000000 0.000000 -0.000000
vn -0.483448 -0.255165 -0.837358
vn -0.966897 -0.255166 0.000000
vn -1.000000 0.000000 -0.000000
vn -0.500001 0.000000 -0.866025
vn 0.483448 -0.255166 -0.837358
vn -0.483448 -0.255165 -0.837358
vn -0.500001 0.000000 -0.866025
vn 0.500001 0.000000 -0.866025
vn -0.000918 0.999998 -0.001590
vn 0.000918 0.999998 -0.001590
vn 0.483448 0.255166 -0.837358
vn -0.483448 0.255165 -0.837358
vn -0.001835 0.999998 0.000000
vn -0.000918 0.999998 -0.001590
vn -0.483448 0.255165 -0.837358
vn -0.966897 0.255166 -0.000000
vn -0.000918 0.999998 0.001590
vn -0.001835 0.999998 0.000000
vn -0.966897 0.255166 -0.000000
vn -0.483448 0.255167 0.837357
vn 0.000918 0.999998 0.001590
vn -0.000918 0.999998 0.001590
vn -0.483448 0.255167 0.837357
vn 0.483448 0.255168 0.837358
vn 0.001835 0.999998 0.000000
vn 0.000918 0.999998 0.001590
vn 0.483448 0.255168 0.837358
vn 0.966897 0.255168 0.000000
vn 0.000918 0.999998 -0.001590
vn 0.001835 0.999998 0.000000
vn 0.966897 0.255168 0.000000
vn 0.483448 0.255166 -0.837358
vn 0.001835 -0.999998 0.000000
vn 0.000918 -0.999998 -0.001590
vn 0.483448 -0.255166 -0.837358
vn 0.966897 -0.255168 0.000000
vn 0.000918 -0.999998 0.001590
vn 0.001835 -0.999998 0.000000
vn 0.966897 -0.255168 0.000000
vn 0.483448 -0.255168 0.837358
vn -0.000918 -0.999998 0.001590
vn 0.000918 -0.999998 0.001590
vn 0.483448 -0.255168 0.837358
vn -0.483448 -0.255167 0.837357
vn -0.001835 -0.999998 0.000000
vn -0.000918 -0.999998 0.001590
vn -0.483448 -0.255167 0.837357
vn -0.966897 -0.255166 0.000000
vn -0.000918 -0.999998 -0.001590
vn -0.001835 -0.999998 0.000000
vn -0.966897 -0.255166 0.000000
vn -0.483448 -0.255165 -0.837358
vn 0.000918 -0.999998 -0.001590
vn -0.000918 -0.999998 -0.001590
vn -0.483448 -0.255165 -0.837358
vn 0.483448 -0.255166 -0.837358
s off
g Barrel1:pCylinder5
usemtl Barrel1:initialShadingGroup
f 81/1/1 82/2/2 18/3/3 13/4/4
f 82/2/5 83/5/6 17/6/7 18/3/8
f 83/5/9 84/7/10 16/8/11 17/6/12
f 84/7/13 85/9/14 15/10/15 16/8/16
f 85/9/17 86/11/18 14/12/19 15/10/20
f 86/11/21 81/13/22 13/14/23 14/12/24
f 44/15/25 43/16/26 45/17/27
f 46/18/28 44/15/29 45/17/30
f 47/19/31 46/18/32 45/17/33
f 48/20/34 47/19/35 45/17/36
f 49/21/37 48/20/38 45/17/39
f 43/16/40 49/21/41 45/17/42
f 37/22/43 38/23/44 53/24/45 54/25/46
f 38/23/47 39/26/48 52/27/49 53/24/50
f 39/26/51 40/28/52 51/29/53 52/27/54
f 40/28/55 41/30/56 50/31/57 51/29/58
f 41/30/59 42/32/60 55/33/61 50/31/62
f 42/32/63 37/22/64 54/25/65 55/33/66
f 19/34/67 20/35/68 92/36/69 87/37/70
f 20/35/71 21/38/72 91/39/73 92/36/74
f 21/38/75 22/40/76 90/41/77 91/39/78
f 22/40/79 23/42/80 89/43/81 90/41/82
f 23/42/83 24/44/84 88/45/85 89/43/86
f 24/44/87 19/46/88 87/47/89 88/45/90
f 14/12/91 13/14/92 7/48/93 12/49/94
f 15/10/95 14/12/96 12/49/97 11/50/98
f 16/8/99 15/10/100 11/50/101 10/51/102
f 17/6/103 16/8/104 10/51/105 9/52/106
f 18/3/107 17/6/108 9/52/109 8/53/110
f 13/4/111 18/3/112 8/53/113 7/54/114
f 1/55/115 2/56/116 20/35/117 19/34/118
f 2/56/119 3/57/120 21/38/121 20/35/122
f 3/57/123 4/58/124 22/40/125 21/38/126
f 4/58/127 5/59/128 23/42/129 22/40/130
f 5/59/131 6/60/132 24/44/133 23/42/134
f 6/60/135 1/61/136 19/46/137 24/44/138
f 2/62/139 1/63/140 25/64/141 26/65/142
f 3/66/143 2/62/144 26/65/145 27/67/146
f 4/68/147 3/66/148 27/67/149 28/69/150
f 5/70/151 4/68/152 28/69/153 29/71/154
f 6/72/155 5/70/156 29/71/157 30/73/158
f 1/63/159 6/72/160 30/73/161 25/64/162
f 7/74/163 8/75/164 32/76/165 31/77/166
f 8/75/167 9/78/168 33/79/169 32/76/170
f 9/78/171 10/80/172 34/81/173 33/79/174
f 10/80/175 11/82/176 35/83/177 34/81/178
f 11/82/179 12/84/180 36/85/181 35/83/182
f 12/84/183 7/74/184 31/77/185 36/85/186
f 31/77/187 32/76/188 38/23/189 37/22/190
f 32/76/191 33/79/192 39/26/193 38/23/194
f 33/79/195 34/81/196 40/28/197 39/26/198
f 34/81/199 35/83/200 41/30/201 40/28/202
f 35/83/203 36/85/204 42/32/205 41/30/206
f 36/85/207 31/77/208 37/22/209 42/32/210
f 26/65/211 25/64/212 43/16/213 44/15/214
f 27/67/215 26/65/216 44/15/217 46/18/218
f 28/69/219 27/67/220 46/18/221 47/19/222
f 29/71/223 28/69/224 47/19/225 48/20/226
f 30/73/227 29/71/228 48/20/229 49/21/230
f 25/64/231 30/73/232 49/21/233 43/16/234
f 63/86/235 62/87/236 64/88/237
f 65/89/238 63/86/239 64/88/240
f 66/90/241 65/89/242 64/88/243
f 67/91/244 66/90/245 64/88/246
f 68/92/247 67/91/248 64/88/249
f 62/87/250 68/92/251 64/88/252
f 70/93/253 69/94/254 71/95/255 72/96/256
f 73/97/257 70/93/258 72/96/259 74/98/260
f 75/99/261 73/97/262 74/98/263 76/100/264
f 77/101/265 75/99/266 76/100/267 78/102/268
f 79/103/269 77/101/270 78/102/271 80/104/272
f 69/94/273 79/103/274 80/104/275 71/95/276
f 57/105/277 56/106/278 62/87/279 63/86/280
f 58/107/281 57/105/282 63/86/283 65/89/284
f 59/108/285 58/107/286 65/89/287 66/90/288
f 60/109/289 59/108/290 66/90/291 67/91/292
f 61/110/293 60/109/294 67/91/295 68/92/296
f 56/106/297 61/110/298 68/92/299 62/87/300
f 51/29/301 50/31/302 69/94/303 70/93/304
f 56/106/305 57/105/306 72/96/307 71/95/308
f 52/27/309 51/29/310 70/93/311 73/97/312
f 57/105/313 58/107/314 74/98/315 72/96/316
f 53/24/317 52/27/318 73/97/319 75/99/320
f 58/107/321 59/108/322 76/100/323 74/98/324
f 54/25/325 53/24/326 75/99/327 77/101/328
f 59/108/329 60/109/330 78/102/331 76/100/332
f 55/33/333 54/25/334 77/101/335 79/103/336
f 60/109/337 61/110/338 80/104/339 78/102/340
f 50/31/341 55/33/342 79/103/343 69/94/344
f 61/110/345 56/106/346 71/95/347 80/104/348
f 93/111/349 94/112/350 95/113/351 96/114/352
f 94/112/353 97/115/354 98/116/355 95/113/356
f 97/115/357 99/117/358 100/118/359 98/116/360
f 99/117/361 101/119/362 102/120/363 100/118/364
f 101/119/365 103/121/366 104/122/367 102/120/368
f 103/121/369 93/123/370 96/124/371 104/122/372
f 106/125/373 105/126/374 93/123/375 103/121/376
f 107/127/377 106/125/378 103/121/379 101/119/380
f 108/128/381 107/127/382 101/119/383 99/117/384
f 109/129/385 108/128/386 99/117/387 97/115/388
f 110/130/389 109/129/390 97/115/391 94/112/392
f 105/131/393 110/130/394 94/112/395 93/111/396
f 82/2/397 81/1/398 96/114/399 95/113/400
f 83/5/401 82/2/402 95/113/403 98/116/404
f 84/7/405 83/5/406 98/116/407 100/118/408
f 85/9/409 84/7/410 100/118/411 102/120/412
f 86/11/413 85/9/414 102/120/415 104/122/416
f 81/13/417 86/11/418 104/122/419 96/124/420
f 88/45/421 87/47/422 105/126/423 106/125/424
f 89/43/425 88/45/426 106/125/427 107/127/428
f 90/41/429 89/43/430 107/127/431 108/128/432
f 91/39/433 90/41/434 108/128/435 109/129/436
f 92/36/437 91/39/438 109/129/439 110/130/440
f 87/37/441 92/36/442 110/130/443 105/131/444
